<?xml version="1.0" encoding="UTF-8"?>
<svg version="1.1" viewBox="0 0 2048 700" width="130" height="90" xmlns="http://www.w3.org/2000/svg">
<path transform="translate(264,25)" d="m0 0h9l1 3 7 2 6 5 16 8 12 7 10 4 2 4 3 2 3 11 1-1 10-1 22 12 9 6 5 3 1-6 4-4 6-1 4 6v5l-3 2-1 5h4l1 2 5 1 5 5 11 6 8 5 8 4 3 4 1 65-1 2h-4l2 7h2l-1 4 8-4 3-3 7-2 2-3 12-6 11-6 3-3 6-3 5-4 5-1v-17l1-9-7-1-4-5 2-10 4-6h9l6 5 2 10-4 6-3 1v27l11 6 13 8 10 6 16 8 5 5 4 2-1 5-3 4-2 7 1 22 6 9 1 3-6-1-2-1 1 26 6 2 7 6 3 2v4h-2v2h2l1 68 2 4 13 8 3 2 10 2 8-5 5-3 3-6h1l-1 7h2v-4l6 2 8 4 6 8 1 4v15l-2 3 4 2 14 8 15 9 35 20 8 5 8 4 5 4 9 4 6-4 7-6 4-1h7l7 3 8 9 2 4v11l-2 7 15 9 19 11 8 5 3 5 1 9-1 6v17l-3 5-10 7-13 7-24 14-18 10-14 9-23 13-11 7-10 6-16 8-18 11-26 14-10 6-27 15-15 9-17 10-19 11-11 7-23 13-12 6-12 2h-10l-10-3-16-10-17-9-11-7-21-12-25-15-24-13-9-6-26-15-53-31-21-12-23-13-13-8-25-14-16-10-18-10-17-10-14-7-11-7-17-10-22-13-10-6-13-7-25-15-6-5-3-5-1-17-1-12 4-8 12-9 19-10 11-7 6-5v-14l4-10 6-5 8-3 9 1 10 10 10-3 12-7h3l2-4 25-14 4-2 5-5 24-12 17-10 6-4 14-7 23-13 7-6 1-2 1-11 2-3h2l-1-6-2-3-1-15v-8l3-7v-3l-2-1-1-3v-25l3-4-1-5-2-13v-48l1-7 9-6 17-9 10-6v-2l-12-8-7-3-4-1v-5h-2v2h-2v-2l-5-2 1-48zm67 47m49 18m2 1 3 4h2l-2-4zm8 6m-96 4 1 4-3 1 6 1 1-3-3-3zm141 109 2 4 3-1z" fill="#E6F8FD"/>
<path transform="translate(81,360)" d="m0 0 9 1 12 12 2 11-2 7-10 10-2 6-3 1v16l4 1 2 3 5-1 13-8 2 1 1 19 6 4 6 3 18 11 25 14 13 8 9 5 23 13 1 2h5l6-5 4-15 8-6 6-2 13-1 5-4 12-6 6-4 6-3v-2l11-6h3v-3l9-3 5-2-5-8-7-15v-2l-5-2-1-2 8-4v-10l-4-4-14-8-17-10-13-8 2-1 25 14 17 10 25 14 15 9 6 3 5-1 14-8 11-7 20-11 22-13 5-2v4l-15 9-3 2v17l-2 4-9 5-13 8-6 3 3 10 1 4 6-2 18-10 2 3 1 5 1 15 1 4 11 6 6 5-1 9 1 8-4 1-20-11-24-14-7-4-4 8h-5l1 11 5 2 11 7 20 11 15 9 18 10-6 11-15 25-6 9-3 3 1 4 10 7 22 12 12 7 13 8 10 6 16 9 2 2 4-1 7-10 15-25 10-15 9 3 12 6 7 3 5 1v-2h2v-3l-13-7-17-10-15-9-13-8-21-12-22-12-10-2-5-4-2-2h3l1-4 5-4 3-2-9-3h-2l-1 3h-5l-2-2v-6l4-4h9l10 4 5 7 4 8 3 3 3-1 5-1 4-2 2-4 15 7 5-1 1-4-6-8-3-5 1-8 4-10 6-5 1-18 11-6 7-4v21l-9 4 9 3 1 3 6 1 3 7 1 9 7-3 15-9 21-12 11-6 1-2 2-25 5 2 12 6 9-1 2 4-1-12 1-7-5 1-1-1v-9l-6-2-6-8-1-3v-11l2-7 7-5 5-3 3-6h1l-1 7h2v-4l6 2 8 4 6 8 1 4v15l-2 3 4 2 14 8 15 9 35 20 8 5 8 4 5 4 9 4 6-4 7-6 4-1h7l7 3 8 9 2 4v11l-2 7 15 9 19 11 8 5 3 5 1 9-1 6v17l-3 5-10 7-13 7-24 14-18 10-14 9-23 13-11 7-10 6-16 8-18 11-26 14-10 6-27 15-15 9-17 10-19 11-11 7-23 13-12 6-12 2h-10l-10-3-16-10-17-9-11-7-21-12-25-15-24-13-9-6-26-15-53-31-21-12-23-13-13-8-25-14-16-10-18-10-17-10-14-7-11-7-17-10-22-13-10-6-13-7-25-15-6-5-3-5-1-17-1-12 4-8 12-9 19-10 11-7 6-5v-14l4-10 6-5z" fill="#96DEEB"/>
<path transform="translate(63,392)" d="m0 0 6 4v2l5 2 2 4v7h5v6l-1 2-11 4-10 7-6 4-1 4 4 2 19 11 8 5 52 30 22 13 9 5 29 17 19 11 15 9 21 12 23 13 9 6 24 13 13 8 14 8 10 6 6 3 11 7 16 9 18 11 11 6 21 12 15 9 27 15 11 4 12-1 16-8 22-12 20-12 23-13 15-9 26-15 17-10 7-5 16-8 10-6 23-13 13-8 24-13 16-10 23-13 12-7 2-2 1-6-11-3-4-8-1-8 5-1 1-4 4-5 5-2 15 9 19 11 8 5 3 5 1 9-1 6v17l-3 5-10 7-13 7-24 14-18 10-14 9-23 13-11 7-10 6-16 8-18 11-26 14-10 6-27 15-15 9-17 10-19 11-11 7-23 13-12 6-12 2h-10l-10-3-16-10-17-9-11-7-21-12-25-15-24-13-9-6-26-15-53-31-21-12-23-13-13-8-25-14-16-10-18-10-17-10-14-7-11-7-17-10-22-13-10-6-13-7-25-15-6-5-3-5-1-17-1-12 4-8 12-9 19-10 11-7z" fill="#FBFDFD"/>
<path transform="translate(1885,370)" d="m0 0h76l5 3 2 9-2 6-5 3-15 1-52 1-58 1-656 2h-233l-5-2-2-9 2-8 5-2 7-1 170-1 229-1 468-1z" fill="#FAC119"/>
<path transform="translate(13,441)" d="m0 0h5l35 21 21 12 13 8 6 3 13 8 9 5 10 7 8 4 17 10 25 14 21 12 9 6 11 6 20 11 21 12 24 14 27 16 35 20 17 10 25 15 28 16 23 13 9 6 12 6 16 9 9 3h11l25-12 24-14 25-14 34-20 24-14 25-14 25-15 24-14 15-9 11-6 26-15 18-10 24-14 27-16 1 2v20l-3 5-10 7-13 7-24 14-18 10-14 9-23 13-11 7-10 6-16 8-18 11-26 14-10 6-27 15-15 9-17 10-19 11-11 7-23 13-12 6-12 2h-10l-10-3-16-10-17-9-11-7-21-12-25-15-24-13-9-6-26-15-53-31-21-12-23-13-13-8-25-14-16-10-18-10-17-10-14-7-11-7-17-10-22-13-10-6-13-7-25-15-6-5-3-5-1-17z" fill="#D2ECF9"/>
<path transform="translate(256,363)" d="m0 0 6 2 17 10 25 14 26 15 14 8 5 1 11-6 16-10 20-11 22-13 5-2v4l-15 9-3 2v17l-2 4-9 5-13 8-6 3 3 10 1 4 6-2 18-10 2 3 1 5 1 15 1 4 11 6 6 5-1 9 1 8-4 1-20-11-24-14-7-4-4 8h-5l1 11 5 2 11 7 20 11 15 9 18 10-6 11-15 25-6 9-5 4-7 3-1 2h-5l-2 6-9 8-1 5-3 1v13l23-13 12-6 1 19 10 7 14 8 10 6 14 8 3 1v2l6 2 20 12 5 1 21-13 20-11 18-11 9-6 19-10 6 1 11 6-4 4-14 8-8 5-14 8-19 11-17 10-18 10-13 8-5 1-27-16-28-16-23-13-11-7-13-8-4-1-1 4-5 3-5-1-7-3 1-5 6-2v-13h-5l-3-6-22-12-24-14-14-8-18-11-18-10 3-3 3-2h3l1 5 8 5 5 1 1-8 13-9 7 1 4 2-1-12-7-3v-2l8-5 39-22 5-4h5l-1-6-4 1-1-9-8-7-6-9-1-7-16-10-7-2-6-11-3-4v-12l-4-4-14-8-17-10-13-8z" fill="#1DC2D4"/>
<path transform="translate(584,391)" d="m0 0h6l1 3h2v2l4 2 4 1 1-4 4 8 8 5 1 9h5v13l1 6h-3v-4l-4 2-8-1-14-8-1 25-4 4-22 12-26 16h-4l-3-11-1-5-6-1-2-3-11-2 3-2 9-3-1-20-6 4-10 5-1 18-7 6-4 13 1 6 7 10 1 4-4 3-6-1-12-6-2 4-5 3-6-1-1 2-6-7-5-10-8-4-3-1h-9l-3 3v6l1 1h5l3-3 9 3 1 2-8 5-3 5 5 4 10 2 22 12 25 14 11 7 20 12 19 11 5 3-1 3h-2v2l-4 1-5-3-12-5-10-5h-2l-10 16-17 28-6 7-4-1-9-6-17-9-9-6-17-10-19-10-8-6-5-3-2-2 1-4 6-7 9-16 11-18 3-6-21-11-18-11-13-7-11-7-5-3-1-3v-8l5-1 3-7h3l26 15 21 12 5 1-1-12 1-5-10-7-7-4-1-4v-15l5 1 23 13 25 15v-11l-2-5-12-7-4-2v-20l5 2 11 6 2 2 9 1 9 9 9 5h4l2-3 9-1 24-13 17-10 25-14 9-6z" fill="#CFEBF8"/>
<path transform="translate(173,70)" d="m0 0h10l9 7 1 13 1 11 1 6v8l1 7-1 4v84l-1 29-3 9-5 6-7 5-4 1-5 3-1 2-12 6-14 8h-2l-1 4-5 3h-4l-7 5-7 2h-7l-6-4-2-6v-109l1-1v-13l-1-2v-37l3-7 4-5 14-9 25-14 3-1 1-3 18-10h3zm-35 210-1 2h2z" fill="#14A2B2"/>
<path transform="translate(638,400)" d="m0 0 1 2 4 2 14 8 15 9 35 20 8 5 8 4 5 4 9 4 6-4 7-6 4-1h7l7 3 8 9 2 4v11l-4 8-5 4-3 6-4 1 2 11 2 5 9 2 2 1v6l-4 4-11 6-18 10-20 12-23 13-14 8-17 10-16 9-14 8-3-1h2l1-7-4-2-1-2v-9l8-5 25-14 38-22 25-14 11-7 4-1v-2l-6-2-18-10-10-6-12-7-4 4-12 9-16 9-18 10-7 4-6 4-8 1-10 4-4 2-3 7-4-1-7-7-9-16-8-13-6-9-1-4-12 4-18 9-4-1-1-4 7-6 11-7 16-8 28-17 14-8 10-6-1-3-3-2v-2l6-3v-3l-5-3-1-2v-15l5-1 2-5 5-5z" fill="#95DDEA"/>
<path transform="translate(264,25)" d="m0 0h9l1 3 7 2 6 5 16 8 12 7 10 4 2 4 3 2 3 11 1-1 10-1 22 12 9 6 5 3 1-6 4-4 6-1 4 6v5l-3 2-1 5h4l1 2 5 1 5 5 11 6 8 5 8 4 3 4v13l-2 2v-13l-30 16-16 9-15 9-23 14-5-1-28-15-23-13-29-16-5-4-3 1-1 6v8l-2-1v-12l1-7 9-6 17-9 10-6v-2l-12-8-7-3-4-1v-5h-2v2h-2v-2l-5-2 1-48zm67 47m49 18m2 1 3 4h2l-2-4zm8 6m-96 4 1 4-3 1 6 1 1-3-3-3z" fill="#FDFDFD"/>
<path transform="translate(258,124)" d="m0 0 5 2 9 6 19 10 24 14 21 11 12 7v58l5 1v2l20-11 22-13 23-13 10-6 2 1v6l-21 12-17 10-24 14-16 9-3 2-6-1-13-8-15-8-22-13-27-15 5 4-6-1-3-2-1 4 10 6 14 8 15 9 16 9 23 14 1 1v13l-5-2-27-15-18-11-8-2-6-3-6-1-9-5 1 7 16 9 19 11 35 20 16 8-1 11-5 6-2 4 3 3 1 4-12-6-23-13-20-12-24-13-4-1 1 14 8 5 49 28 17 10 4 3v13l-4-1-28-16-26-15-16-9-6-3-1-7-5-1v-15l2-3h2l-1-6-2-3-1-15v-8l3-7v-3l-2-1-1-3v-25l3-4-1-5-2-13v-23l1-20 2-7z" fill="#E7F9FD"/>
<path transform="translate(195,336)" d="m0 0 5 1 17 10 39 23 16 9 17 10 4 3-1 3-27 16-24 14-6 4-6 3-11 6-4-2-18-10-13-8-23-12-6-5-22-12-12-7v-3l22-13 10-5 6-4 1-6-3-5 1-7 2-2h5v2l4 1 1 6-5 4 1 3 19-11z" fill="#F97647"/>
<path transform="translate(711,284)" d="m0 0 6 1 14 9 16 8 11 7 9 5 7 6 4 7v68l-5 5-7 4-8 4-8-3-2-2h-3l1-3-6 4-12 6-4-5-6-15-5-3v-2l-4-1-2-1-1-3-8-7-7-2v-73l11-8zm-18 83 2 4v-3zm17 14m5 4 3 2v-2z" fill="#FAC018"/>
<path transform="translate(154,341)" d="m0 0h2l2 7 2 3-1 6-14 9-10 5-15 9 1 2 35 19 6 5 7 4v2l5 2 11 6-3 2 8 6v2l6 2 10 6 5 6h5l7-5 3 1-5 5-4 10-1 16 4 2 5 4 5 2-1 8-2 7-7 6h-5l-4-4-16-9-11-6-10-6-23-13-17-10-11-7-8-4-2-2-1-19-11 6-5 3-4-1-2-3-3-1-1-2v-14l4-2 2-6 9-9 2-10-2-9 2-2 9-3 10-6h3l2-4 25-14z" fill="#E5F8FD"/>
<path transform="translate(432,126)" d="m0 0h2l1 3v8h1l1 52-1 2h-4l2 7h2l-2 9-2 2-4 1-11 6-13 8-25 14-20 12-4 3v12l22-12 9-5 7-2 3 2-23 13-13 8-11 6-5-1-11-6-42-24-15-9-2-1v-2l6 2 4 2 8 2 20 12 25 14 3 2-1-13-20-12-17-10-16-9-10-6-14-8-2-4 2-3 5 3h2l-5-3 2-1 29 16 29 17 18 10 3 2 6-1 13-8 25-14 20-12 20-11v-6l-10 5-13 8-20 11-20 12-11 6h-2v-2l-5-1-1-4v-53l16-10 17-10 14-8 25-14z" fill="#D1EBF8"/>
<path transform="translate(568,292)" d="m0 0 5 1 1 68 1 4-1 11-2 3h-2v2l4-1v7l-14 8-11 6-13 8-18 10-15 9-1 1h-7l-45-26-20-12-6-3v-8l16 8 29 17 25 15 4 1 6-3-4-2-2 4-1-36v-52l21-12 15-9 26-14z" fill="#D0EBF8"/>
<path transform="translate(434,503)" d="m0 0 8 2 5 4 10 2 22 12 25 14 11 7 20 12 19 11 5 3-1 3h-2v2l-4 1-5-3-12-5-10-5h-2l-10 16-17 28-6 7-4-1-9-6-17-9-9-6-17-10-19-10-8-6-5-3-2-2 1-4 6-7 9-16 11-18z" fill="#EE602B"/>
<path transform="translate(663,432)" d="m0 0 4 1 6 10 6 9 10 17 8 14 2 3-1 4-6 4-10 7-14 8-18 10-7 4-6 4-8 1-10 4-4 2-3 7-4-1-7-7-9-16-8-13-6-9-1-4-12 4-18 9-4-1-1-4 7-6 11-7 16-8 28-17 14-8 13-8 14-7 12-5z" fill="#D95626"/>
<path transform="translate(173,70)" d="m0 0h10l9 7 1 13 1 11 1 6v8l1 7-1 4v84l-1 29-3 9-5 6-7 5-4 1-5 3-1 2-12 6-14 8h-2l-1 4-5 3h-4l-7 5-7 2h-7l-6-4-2-6v-109l1-1v-13l-1-2v-37l3-7 4-5 14-9 25-14 3-1 1-3 18-10h3zm12 26-19 12-12 6-30 18-7 4-1 39v94l6-1 13-8 14-8 12-6 8-6 6-3 10-6 2-2 1-107v-25zm-47 184-1 2h2z" fill="#E7F9FD"/>
<path transform="translate(618,363)" d="m0 0h1l-1 7h2v-4l6 2 8 4 6 8 1 4v15l-3 1-2 5-5 4-2 5h-5l1 17 5 2 1 4-5 3h-2l4 4v2l2 1-51 30-16 9-11 6-9 7-1 4-2-2-13 8-7 4-1 9 6 2 1 3 16-9 4-3h2l1 22 5 2 20 12 5 5-12 7-5-1-24-13-22-14-9-7v-5l-10 2-21-12-8-4 1-6h6l5-3 2-4 15 7 5-1 1-4-6-8-3-5 1-8 4-10 6-5 1-18 11-6 7-4v21l-9 4 9 3 1 3 6 1 3 7 1 9 7-3 15-9 21-12 11-6 1-2 2-25 5 2 12 6 9-1 2 4-1-12 1-7-5 1-1-1v-9l-6-2-6-8-1-3v-11l2-7 7-5 5-3z" fill="#14A1B2"/>
<path transform="translate(261,227)" d="m0 0 6 2 18 10 13 8 25 14 15 9 8 4 4-1 17-9 8-5 27-15 11-7 15-8 3 1 1 3v11l-25 14-34 20-16 9h-2v14l19-10 20-12 23-13 10-6 5-1-2 15 1 6-9 6-19 11-20 11-20 12-8 5-1 13 21-12 23-13 17-10 8-4 1 2-1 2h-2l1 2h2v7l-17 10-21 12-20 12-17 9-7-1-23-13-35-20-18-11-5-4v-5l5 1 19 10 18 11 18 10 15 9 9 5h3l-2-5 2-20 3-3h2l-1-2-5 2-16-8-23-13-21-12-23-13-3-3-1-7 16 8 20 11 15 9 18 10 14 8-1-5-4-2h2v-12h1l1 8 4-5 1-9 1-2-5-1-24-13-15-9-18-10-22-13-3-2z" fill="#E4F7FC"/>
<path transform="translate(699,486)" d="m0 0 22 12 10 6 15 8v2l-11 6-13 8-25 14-22 13-25 14-14 8v9l4 4-1 7-4 2-8-1-4-3 1-5 4-2v-2h2v-5l-8 4-10 6-4-2-19-10-8-5 1-2 11-6 1-1h6l5 4 4 2h6l6-4h2v-2l-4-1-6-7-2-6v-9l-2-1h3l2-7 9-5 12-3 5-2 14-8 16-9 14-8 9-7 5-3z" fill="#1DC2D4"/>
<path transform="translate(1466,209)" d="m0 0h17l21 1 12 2 9 5 4 5 6 8v23l-8 11-6 5 4 3 8 4 7 8 4 13v11l-4 12-7 8-14 8-8 3-7 1h-42l-4-6v-120l4-4zm10 15v42h23l7-3 6-3 5-7 1-3v-13l-4-6-7-6-2-1zm0 54v46h31l10-3 6-7 2-7v-10l-5-10-6-5-13-4z" fill="#FEFEFE"/>
<path transform="translate(493,119)" d="m0 0h9l6 5 2 10-4 6-3 1v27l11 6 13 8 10 6 16 8 5 5 4 2-1 5-3 4-8 4-15 9-24 13-10 7-6-1-24-13-16-10-10-6-8-5v-9l6-3 3-3 7-2 2-3 12-6 11-6 3-3 6-3 5-4 5-1v-17l1-9-7-1-4-5 2-10z" fill="#F77647"/>
<path transform="translate(1862,242)" d="m0 0h9l12 5 7 6 2 5 8-6 11-7 8-3h12l12 6 8 9 3 14v68l-4 1h-11l-1-1-2-67-3-9-5-5-3-1h-11l-10 8-8 9-1 65-1 1h-14l-2-2-1-69-5-8-5-4h-11l-8 5-9 11-1 1-1 64-6 2h-7l-3-2v-92l2-2h10l2 3 1 8 4-1 10-8 7-3z" fill="#FEFEFE"/>
<path transform="translate(1095,242)" d="m0 0h10l13 5 5 5 3 6 8-6 11-7 8-3h11l12 5 7 7 3 7 2 9 1 65-2 4-2 1h-11l-2-1-1-61-2-9-2-8-4-2-3-2h-12l-10 8-8 9-1 65-2 1h-12l-1-1-1-66-6-12-6-4h-11l-9 6-8 10-1 32-1 34-3 1h-9l-4-2v-92l2-2h12l1 12 5-3 3-3h2v-2z" fill="#FEFEFE"/>
<path transform="translate(81,360)" d="m0 0 9 1 12 12 2 11-2 7-10 10-2 6-3 1v16l4 1 2 3 5-1 13-8 2 1 1 19 6 4 6 3 18 11 25 14 13 8 9 5 23 13 1 2h5l6-5 4-15 8-6 6-2h8l5 2 4 2 3-4 13-6 6 1 7 4-4 5-16 9h-3l1 2v12l-7 10-3 3-2 4-4 1v16l6 2 1 4-8 6-5-1-5-4-1-4 3-3h3v-12h-5l-1-9-5-3-4-2-6 4-9 1-8-4-17-10-38-22-8-5-25-14-20-12-18-10-8-4 1-4 5-3 1-12h-5l-1-9-6-4-5-5-1-4v-11l4-10 6-5z" fill="#1EC3D5"/>
<path transform="translate(257,193)" d="m0 0 3 1 1 5h3l3 3 4 3-6-1-3-2-1 4 10 6 14 8 15 9 16 9 23 14 1 1v13l-5-2-27-15-18-11-8-2-6-3-6-1-9-5 1 7 16 9 19 11 35 20 16 8-1 11-5 6-2 4 3 3 1 4-12-6-23-13-20-12-24-13-4-1 1 14 8 5 49 28 17 10 4 3v13l-4-1-28-16-26-15-16-9-6-3-1-7-5-1v-15l2-3h2l-1-6-2-3-1-15v-8l3-7v-3l-2-1-1-3v-25z" fill="#E4F7FC"/>
<path transform="translate(256,363)" d="m0 0 6 2 17 10 25 14 26 15 14 8 5 1 11-6 16-10 20-11 22-13 5-2v4l-15 9-3 2v17l-2 4-9 5-13 8-6 3 3 10 1 4 6-2 18-10 2 3 1 5 1 15 1 4 11 6 6 5-1 9 1 8-4 1-20-11-24-14-7-4-4 8h-5l2 13v4l6 3-2 4-5 3h-6l-7-6 4-3 3-1v-5l-2-1 3-1-1-6-4 1-1-9-8-7-6-9-1-7-16-10-7-2-6-11-3-4v-12l-4-4-14-8-17-10-13-8z" fill="#14A1B1"/>
<path transform="translate(399,558)" d="m0 0 4 5 11 7 18 10 14 8 13 8 10 6 16 9 2 2 4-1 5-7 2 1v2l5-2 2-2h4l1 13 1-1 1-17 4 1h4l11-6 12-7h2l2 10 2-1v11l-4 5-24 14-18 10-14 9-5-1-5-3-19-11-2-1v-2l-5-1-12-7-10-6-22-13-3-3-1-18-22 12-12 7h-1v-15h3l2-6 8-7 3-6h5l2-4z" fill="#DEF5FB"/>
<path transform="translate(291,390)" d="m0 0 4 2-1 7h-3l-1 3-5 4 11-6h4l3 3v3l-6 3 5 3 11 23 2 3-13 4h-2v3l-11 6-6 5-8 4-8 5-8 4-2 2-13 1-9 4-4 3-7-2-8-6v-16l4-12 2-2-6 4h-5l-6-7-15-8-4-4-5-4 1-2-11-7-2-1 1-2 22 12 11 7 12 7 3 1 22-12 13-8 21-12 18-11z" fill="#FDFDFD"/>
<path transform="translate(555,212)" d="m0 0h2v5l-1 2 1 22 6 9 1 3-6-1-2-1 1 22 1 6-1 1-1 9-5 5-30 16-13 8-7 4h-3v-74l-3-3 7-2 13-8 24-13z" fill="#D0EBF8"/>
<path transform="translate(405,578)" d="m0 0h1l1 19 10 7 14 8 10 6 14 8 3 1v2l6 2 20 12 5 1 21-13 20-11 18-11 9-6 19-10 6 1 11 6-4 4-14 8-8 5-14 8-19 11-17 10-18 10-13 8-5 1-27-16-28-16-23-13-11-7-13-8-4-1-1 2v-3l-4-2-1-2v-10h1l1 8 23-13z" fill="#1EC3D5"/>
<path transform="translate(406,433)" d="m0 0 5 1 23 13 20 12 23 13 12 8 5 3 8 13 2 2-1 4-3 2-6-1-12-6-2 4-5 3-6-1-1 2-6-7-5-10-8-4-3-1h-9l-3 3v6l1 1h5l3-3 9 3 1 2-8 5-2 4h-9l-3 6-16-8-16-9-10-6-11-6-11-7-5-3-1-3v-8l5-1 3-7h3l26 15 21 12 5 1-1-12 1-5-10-7-7-4-1-4z" fill="#96DEEB"/>
<path transform="translate(179,118)" d="m0 0 3 1 1 5 2 23v17l2 47v18l-5 4-10 6-9 5-5 3-14 8-16 9-6 4h-3v-6l4-8 6-15 4-11 5-11 6-15 8-18 6-17 7-16 7-15z" fill="#0D8594"/>
<path transform="translate(261,270)" d="m0 0 1 2 6 2 23 13 17 10 27 15 12 6 6-2v3l-4 3-2 20v4l3 1-5 1-18-10-15-9-18-10-13-8-17-9-3-1 1 6-9 3-9 5-4 4-14 8-10 6-4 2 2 4 4 3v3l7 2 10 4 19 11 24 14 15 9 11 7 1 2v10l-4-1-1-3-10 4-5 3-2-1 7-5 1-2h3v-7l-16-8-13-8-25-14-13-8-19-11-10-6-4 1-19 10-10 6-2-1 1-4 4-3v-6l-4-1v-2l-3-1 24-12 17-10 6-4 14-7 23-13 7-6 2-2 1 4 4 1v-8h1v15l6 2 20 11 24 14 26 15 4 2-1-13-41-24-18-10-17-10-2-2z" fill="#FAFCFD"/>
<path transform="translate(988,207)" d="m0 0h13l17 5 5 4 1 2v11l-4 2-12-6-8-1h-11l-9 2-5 6-1 3v9l3 7 2 4 7 2 4 3 10 5 17 9 12 12 3 11v9l-2 12-9 11-5 4-9 6-4 1h-31l-16-8-4-5-1-6 2-5 7 1 11 5 11 3h13l11-4 5-5 1-3v-16l-6-7-6-5-9-4-12-5-11-7-6-7-6-8v-24l8-11 7-6 13-5z" fill="#FEFEFE"/>
<path transform="translate(264,25)" d="m0 0h9l1 3 7 2 6 5 16 8 12 7 10 4 2 4 3 2 2 12-1 36-4 4-6 2-12-6-11-7-10-6-10-7-10-3v-5h-2v2h-2v-2l-5-2 1-48z" fill="#F9C018"/>
<path transform="translate(346,497)" d="m0 0h24l16 4 11 6 5 4 5 10-1 9-7 9-7 6-7 4-4-1-7-6-4-2h-9l-9 5-3 3-2 4-11-2-10-4-8-5-6-7-2-6 1-10 3-6 8-7 11-5z" fill="#95DDEA"/>
<path transform="translate(1245,242)" d="m0 0h15l14 5 8 8 2 4 2 17v61l-1 2-8 1-4-1-1-4v-7h-2l-2 4-6 3-5 4-4 1h-21l-8-4-7-6-5-10v-13l3-7 6-7 16-8 9-2h23l-1-19-6-5v-2h-26l-16 8-2-1-1-11 1-2 10-5zm4 53-7 1-9 6-3 4v13l7 8 3 1h9l9-3 11-8v-21l-13-1z" fill="#FEFEFE"/>
<path transform="translate(574,365)" d="m0 0 6 2 12 8 11 2-2 22-5-1-3-2v-2h-2l-1-2h-6l-15 8-9 6-22 12-22 13-15 8-9 1-2 3-6-1-10-6-4-6-2-1-9-1-9-6-9-5 1 20 11 6 5 3 2 5v9l-1 2-5-2-15-9-16-9-1-6-5-6-11-7v-15l4-1 1-2v15l6 2 10 6 4 2-1-5v-15l-6-2-10-7 2-5 5-5h2l1-3 10 4 18 11 26 15 17 10h7l14-9 17-9 18-11 9-5 13-7 1-7-4 1v-2l3-3z" fill="#FBFDFD"/>
<path transform="translate(618,363)" d="m0 0h1l-1 7h2v-4l6 2 8 4 6 8 1 4v15l-3 1-2 5-5 4-2 5h-5l1 17 5 2 1 4-5 3h-2l4 4v2l2 1-51 30-16 9-11 6-9 7-1 4-2-2-13 8-7 4-1 8h-1v-16l5-2 2-5 8-9 2-6 9-5 13-8 21-12 11-6 1-2 2-25 5 2 12 6 9-1 2 4-1-12 1-7-5 1-1-1v-9l-6-2-6-8-1-3v-11l2-7 7-5 5-3z" fill="#1DBFD1"/>
<path transform="translate(1749,242)" d="m0 0h14l14 4 7 6 5 9v78l-6 1-6-1-2-10-5 4-6 4-7 3h-21l-5-2-9-7-4-6-1-7v-9l1-8 8-9 15-7 9-2h24l-1-16-4-6-5-4h-23l-16 8-3-1-1-3v-7l5-5 6-3zm16 53-19 1-10 6-2 10 1 9 6 6 3 1h10l8-3 12-9v-20z" fill="#FEFEFE"/>
<path transform="translate(1656,242)" d="m0 0h11l12 5 5 4 6 8 2 14v66l-12 1-4-2-1-58-3-15-5-6-4-2h-12l-11 7-3 4h-2l-2 5-1 6-1 60-13 1-3-1v-93l2-2h11l1 1v11h4l2-4 9-6z" fill="#FEFEFE"/>
<path transform="translate(574,491)" d="m0 0h3l5 9 7 10 9 16 6 9 5 5v2h2l2 12 3 6 4 4 3 1v2l-8 5h-6l-8-5-5-3-17-10-5-2-19-11-6-4-1-4v-18l-20 12-4 1v-4l-5-2v-9l8-5 14-8 1 3h5l15-7 8-4z" fill="#E4F7FC"/>
<path transform="translate(404,329)" d="m0 0 5 3 3 4 3-3 7-4h2v24l1 4v9l-1 9-1-4-26 15-10 6-18 10-16 10-4 1-2-9 1-45 4 1-2 3v27h2v-21l14-7h2v-2l-7-1-3 2-4-1-1-3 4-1v-2l8-5 11-1 3 2v2l4 2 2-4 13-7h2l-2-5v-5z" fill="#CFEBF8"/>
<path transform="translate(638,400)" d="m0 0 1 2 4 2 14 8 15 9 35 20 8 5 8 4 5 4 9 4 4-1-2 7v10l4 7v2l4 2 5 5-2 4-4-1-17-9-14-7-7-5-7-3-6-3 1 13h-2l-3-5v-2l-2-1-8-14-8-13-5-7-2-4-9 1-20 9-6 3h-3l-4-4v-2l6-3v-3l-5-3-1-2v-15l5-1 2-5 5-5z" fill="#FCFDFD"/>
<path transform="translate(1394,219)" d="m0 0h12l2 2v23h20l6 1v11l-26 1 1 57 4 9 4 3h7l7-3h3v14l-2 2-5 1h-19l-6-3-1-3-5-2-4-12-1-7v-56h-10l-5-2v-8l4-3h11v-22z" fill="#FDFDFD"/>
<path transform="translate(484,43)" d="m0 0h13l10 4 11 8 8 8 10 15 5 13 1 8-8 8-7 1-2-2 1 5-1 1h-11l-5-9 1 9-3 4-2 3-6-3-6-9v-9l2-2 10-1-4-6-2-1h-9l-6 4-4-2-2-6 1-5 8-6 7-1 12 2 8 7 9 10 1 1-1-5-3-1-2-3-2-6-8-10-8-6-5-2h-13l-10 8-4 1-4-4v-9l4-7 7-3zm18 33m2 1m1 1m1 1m1 1m1 1m1 1m1 1m1 1m1 1m1 1m1 1 1 3v-3zm2 3m1 1m1 1 1 2zm1 2 1 3v-3zm-13 2 1 2zm20 0 1 2zm-5 1 1 2zm6 1 1 2zm-5 1 1 2zm1 2 1 2zm6 3 1 2z" fill="#FDFDFE"/>
<path transform="translate(711,284)" d="m0 0 6 1 14 9 16 8 11 7 9 5 7 6 4 7v68l-5 5-7 4-4 2 2-13v-52l-2-6-5-7-15-10-6-3-9-6-9-5-14-7-6 2-3 4v28l1 1 6-2h6l5 5 1 9-2 2-8 1-5-5-5-1v14l3 10 4 6 2 4 5 2 6 4 5 2 4 9 1 11-2-4-4-9-5-3v-2l-4-1-2-1-1-3-8-7-7-2v-73l11-8zm-18 83 2 4v-3zm17 14m5 4 3 2v-2z" fill="#FEE95F"/>
<path transform="translate(103,175)" d="m0 0h5l2 5v88l1 19h2v-12l1-3 5-3 11-7 16-9 12-7 14-8 10-6 7-3 2 4v9l1 4-6 8-7 5-4 1-5 3-1 2-12 6-14 8h-2l-1 4-5 3h-4l-7 5-7 2h-7l-6-4-2-6v-105zm35 105-1 2h2z" fill="#E6F9FD"/>
<path transform="translate(261,227)" d="m0 0 6 2 18 10 13 8 25 14 15 9 8 4 4-1 17-9 8-5 27-15 11-7 15-8 3 1 1 3v11l-25 14-34 20-16 9h-2v14l19-10 20-12 23-13 10-6 5-1-1 7-12 5-14 8-20 12-25 14-12 6-4-1-2-6-4-2h2v-12h1l1 8 4-5 1-9 1-2-5-1-24-13-15-9-18-10-22-13-3-2z" fill="#E4F7FC"/>
<path transform="translate(428,191)" d="m0 0 4 1 2 6h2l-2 9-2 2-4 1-11 6-13 8-25 14-20 12-4 3v12l22-12 9-5 7-2 3 2-23 13-13 8-11 6-5-1-11-6-42-24-15-9-2-1v-2l6 2 4 2 8 2 20 12 25 14 3 2-1-13-20-12-17-10-16-9-10-6-14-8-2-4 2-3 5 3h2l-5-3 2-1 29 16 29 17 18 10 3 2 6-1 13-8 25-14 20-12 20-11v-6z" fill="#F6FBFC"/>
<path transform="translate(647,524)" d="m0 0h4v27l1 2-6 9-5 4v5l-6 1 1 14 4 4-1 7-4 2-8-1-4-3 1-5 4-2v-2h2v-5l-8 4-10 6-4-2-19-10-8-5 1-2 11-6 1-1h6l5 4 4 2h6l6-4h2v-2l-4-1-6-7-2-6v-9l-2-1h3l2-7 9-5 12-3 2 2 7-1z" fill="#13A0B0"/>
<path transform="translate(1104,433)" d="m0 0 7 1 3 5 6 15 7 18 5 14 3 2 2-10 3-5 3-9 9-23 5-7h13l1 1v62l-2 6-6-1-1-19v-40h-2l-2 11-6 11-6 16-7 18-5 4-5-1-5-10-6-17-8-20-4-8-1 55-7 1-1-1-1-14v-43l1-11z" fill="#FEFEFE"/>
<path transform="translate(663,432)" d="m0 0 4 1 6 10 6 9 10 17 8 14 2 3-1 4-6 4-10 7-14 8-18 10h-3l2-4 5-2 7-2 2-4 9-5 5-4 5-2 3-3h2v-2l5-2 2-5-1-5-3-1-4-8-3-3v-3l-7-2v7l-5 10-7 4-4 2h-6l-3-3v-2l-5-2-6-10-1-15-2-2-5 1-9 4-2 6-11 1v2l-7 3-13 5-6 4-1 2-7 1-1 2-10 4-3 2-3-1 22-12 27-16 10-6 13-8 14-7 12-5z" fill="#DF764B"/>
<path transform="translate(1356,241)" d="m0 0 10 2 2 2 1 9-2 7-6-2-2-1h-7l-9 6-7 10-1 3-1 12v48l-1 2-3 1h-11l-2-2-1-20v-45l1-27 1-2h11l2 1v13l5-5 9-8 5-3z" fill="#FEFEFE"/>
<path transform="translate(256,363)" d="m0 0 6 2 17 10 25 14 26 15 14 8 5 1 11-6 16-10 20-11 22-13 5-2v4l-15 9-3 2v17l-2 4-9 5-13 8-7 3-7-5-3-1h-16l-6 8-3 5-1 10h-1l-1-7-16-10-7-2-6-11-3-4v-12l-4-4-14-8-17-10-13-8z" fill="#1DC2D4"/>
<path transform="translate(277,465)" d="m0 0 6 1 7 4-4 5-16 9h-3l1 2v12l-7 10-3 3-2 4-4 1v16l6 2 1 4-8 6-5-1-5-4-1-4 3-3h3v-12h-5l-1-9-5-3-5-4-3-8 1-9 3-9 7-5 6-2h8l5 2 4 2 3-4z" fill="#14A1B1"/>
<path transform="translate(441,417)" d="m0 0 5 2 11 6 2 2 9 1 9 9 9 5h4l2-3h7v21l4-8 2-1v12l-6 5-5 15-5-2-15-10-15-8v-12l-2-5-12-7-4-2z" fill="#E6F9FD"/>
<path transform="translate(1231,433)" d="m0 0h13l7 3 6 7v17l-5 2 4 7 5 5 1 3v10l-4 8-5 5-8 2h-27l-1-3v-64l1-1zm-5 8v22h13l7-3 2-6-1-9-5-3-3-1zm10 29-10 1v23h15l8-2 3-5v-8l-4-7-4-2z" fill="#FEFEFE"/>
<path transform="translate(1569,244)" d="m0 0h13l2 1 1 3v77l-1 14-3 1h-12l-2-3v-91z" fill="#FEFEFE"/>
<path transform="translate(543,587)" d="m0 0h2l2 10 2-1v11l-4 5-24 14-18 10-14 9-5-1 2-1-1-7 1-21 4-2 6-8 2 1v2l5-2 2-2h4l1 13 1-1 1-17 4 1h4l11-6z" fill="#C9E9F6"/>
<path transform="translate(754,447)" d="m0 0h7l7 3 8 9 2 4v11l-4 8-5 4-3 6-4 1v17l5 1 1 4-6 6-7-1-6-7 3-3h4v-13l-4 1-1-2v-7l-8-6-5-9v-10l4-9 8-7z" fill="#14A2B2"/>
<path transform="translate(361,539)" d="m0 0h9l9 6 3 3v2h2l3 7-1 9-4 6-7 6-1 5-3 1-1 5v10l4 4v5l-5 3-5-1-7-3 1-5 6-2v-13h-5v-8l-9-3-2-2v-3l-2-5v-12l3-7 9-7z" fill="#14A1B1"/>
<path transform="translate(154,341)" d="m0 0h2l2 7 2 3-1 6-14 9-10 5-15 9 1 2 35 19 6 5 7 4v2l5 2 3 5-11-3-12-5-16-9-19-8-4-2-12 1-1-4 1-8-2-9 2-2 9-3 10-6h3l2-4 25-14z" fill="#FCFDFD"/>
<path transform="translate(964,429)" d="m0 0h9l1 27 12-6 9 1 8 7 4 5 1 3v21l-7 11-8 5-7 1-11-4-3-2v4l-7 1-1-1-1-15v-55zm19 30-6 3-3 3-1 7v13l3 6 7 4h7l6-5 2-6v-15l-3-7-4-3z" fill="#FEFEFE"/>
<path transform="translate(618,363)" d="m0 0h1l-1 7h2v-4l6 2 8 4 6 8 1 4v15l-3 1-2 5-5 4-2 5h-5l-1 21-3-3-1-2 1-13-5 1-1-1v-9l-6-2-6-8-1-3v-11l2-7 7-5 5-3z" fill="#1AA5B5"/>
<path transform="translate(81,360)" d="m0 0 9 1 12 12 2 11-2 7-10 10-2 6-3 1-1 20h-4l-1-17h-5l-1-9-6-4-5-5-1-4v-11l4-10 6-5z" fill="#14A2B2"/>
<path transform="translate(1498,438)" d="m0 0 3 1v12h32l2 1 1 16-1 34-7 1-3-3v-40h-24l1 32 3 2h11l-1 6-3 3h-10l-6-3-4-8-1-12v-20h-6l-1-1v-8h7v-7l1-5z" fill="#FEFEFE"/>
<path transform="translate(692,493)" d="m0 0 2 1-1 33-10 6-12 6-9 6-8 5-3-1v-25l-5 2-5 3-5-1 5-5 8-4 17-10 13-7 12-8z" fill="#D1EBF8"/>
<path transform="translate(403,425)" d="m0 0 2 3 1 5 1 15 1 4 11 6 6 5-1 9 1 8-4 1-20-11-24-14-6-4 5-8 2-7 5-1z" fill="#1DC2D4"/>
<path transform="translate(195,336)" d="m0 0 5 1 5 4-9-1-1 5-4-1-3 2-9 3-2 1-1 5h-2l-2 4-3 1v2l-4 2-1 5 4 1 8 6 1 2-1 10-5 3-8 4-5-1-6-4-3-1-2-3v-9l5-5 5-4-4-3-17 9-5 2-6 3v3l16 9 17 9 6 5 6 3 24 14 3 2-1 2-13-8-23-12-6-5-22-12-12-7v-3l22-13 10-5 6-4 1-6-3-5 1-7 2-2h5v2l4 1 1 6-5 4 1 3 19-11z" fill="#D57C4F"/>
<path transform="translate(495,179)" d="m0 0h2l1 2v9l3-1 1-9 5 2 15 8 1 14-6 7-18 9-17-9-6-4v-14l3-5z" fill="#FDFDFD"/>
<path transform="translate(260,263)" d="m0 0 16 8 20 11 15 9 18 10 14 8 5 1 16-8 25-14 16-10 18-10 7-2v6l-24 14-23 13-26 15-9 5-10-4-21-12-25-14-17-10-13-7z" fill="#DF754A"/>
<path transform="translate(260,190)" d="m0 0 6 2 21 12 23 13 13 8 20 11 3 2 5-1 11-7 11-6 22-13 23-13 10-6 2 1v6l-21 12-17 10-24 14-16 9-3 2-6-1-13-8-15-8-22-13-27-15-5-5z" fill="#F27748"/>
<path transform="translate(261,227)" d="m0 0 6 2 18 10 13 8 25 14 15 9 8 4 4-1 17-9 8-5 27-15 11-7 15-8h2v6l-16 10-11 6-19 11-9 5-15 9-11 6-6-1-24-13-15-9-18-10-22-13-3-2z" fill="#DF754A"/>
<path transform="translate(523,562)" d="m0 0 9 3 12 6 7 3 3 3-5-1v20l-2 2-2-6v-5l-22 13-6 2-5-3v17l-2 2-1-1v-13l-5 2-2 2h-4l-1-4 16-27z" fill="#D3ECF8"/>
<path transform="translate(261,301)" d="m0 0 5 1 19 10 18 11 18 10 15 9 9 5 5-1 19-10 15-9 16-9 19-11 5-2v7l-17 10-21 12-20 12-17 9-7-1-23-13-35-20-18-11-5-4z" fill="#F27748"/>
<path transform="translate(1367,450)" d="m0 0h9l8 3 6 5 4 8 1 4v12l-3 9-6 8-9 4-10 1-10-3-6-5-4-9-1-4v-12l4-10 4-5 10-5zm2 8-7 3-4 5-1 4v15l3 7 5 3h10l6-3 4-6v-19l-5-6-7-3z" fill="#FEFEFE"/>
<path transform="translate(406,433)" d="m0 0 5 1 23 13 20 12 23 13 12 8 5 3 8 13 2 2-1 4-3 2-6-1-13-7-9-16-9-11-8-6-9-4h-8l-11 5-4-2-11-7-5-3-1-4z" fill="#ED612D"/>
<path transform="translate(1311,433)" d="m0 0h15l6 3 3 3-1 5-10-2-2-1h-7l-7 3-1 2v8l9 6 13 7 6 4 3 8v8l-4 9-5 4-8 3h-14l-10-4-1-1v-8h3l8 3 10 1 8-3 2-3v-10l-4-2-5-4-11-5-7-6-4-8 1-8 6-8 4-3z" fill="#FEFEFE"/>
<path transform="translate(428,191)" d="m0 0 4 1 2 6h2l-2 9-2 2-4 1-11 6-13 8-25 14-20 12-4 3v12l22-12 9-5 7-2 3 2-23 13-13 8-11 6h-3v-8l1-2 2-18 5-5 24-14 16-9 15-9 20-11v-6z" fill="#E4F7FC"/>
<path transform="translate(1567,450)" d="m0 0h10l10 5 7 8 1 8v10l-2 10-6 8-9 4-10 1-11-4-5-5-4-9-1-13 2-8 4-7 9-6zm2 8-6 3-5 6-1 5v12l3 7 6 4h10l6-3 3-5 1-14-2-9-4-4-6-2z" fill="#FEFEFE"/>
<path transform="translate(558,277)" d="m0 0 6 3 9 7v4l-16 8-18 10-11 6-21 12-9 2-8-2-15-9-16-9-15-9-5-4v-4l7 1 14 7 27 16 9 6 5 1v-2l19-11 18-10 16-9 1-2 1-9z" fill="#FBFDFE"/>
<path transform="translate(424,380)" d="m0 0 16 8 29 17 25 15 4 1 16-8 19-11 7-4 23-13 9-5h2v7l-14 8-11 6-13 8-18 10-15 9-1 1h-7l-45-26-20-12-6-3z" fill="#F37647"/>
<path transform="translate(1630,450)" d="m0 0h7l8 5 5 9 1 3v34l-1 1h-9l-1-4-1-33-2-4-2-1h-7l-10 6-1 36h-9v-50l2-1h6l1 1v5z" fill="#FEFEFE"/>
<path transform="translate(588,433)" d="m0 0h3v17l-4 4-22 12-26 16h-4l-3-11-1-5 7-5 10-5 12-8 11-6z" fill="#D95727"/>
<path transform="translate(261,244)" d="m0 0 16 8 20 11 15 9 26 15 2 2v13l-6-2-18-10-25-15-16-9-14-9z" fill="#14A3B3"/>
<path transform="translate(261,207)" d="m0 0 12 6 22 13 21 12 23 14 1 1v13l-5-2-27-15-18-11-27-15-2-1z" fill="#14A3B3"/>
<path transform="translate(261,279)" d="m0 0 14 8 25 14 24 14 15 9 1 1v13l-4-1-28-16-26-15-16-9-5-3z" fill="#14A3B3"/>
<path transform="translate(1433,451)" d="m0 0h7l1 1 1 35 3 5 3 2h7l6-4 3-4v-33l1-2h9v51l-5 1-3-2-1-5-8 6-5 2-9-1-7-4-3-9-1-6v-32z" fill="#FEFEFE"/>
<path transform="translate(429,208)" d="m0 0h2v15l-22 12-15 9-17 10-19 10-4 2v-13l5-4 24-14 25-14 16-10z" fill="#14A2B2"/>
<path transform="translate(429,245)" d="m0 0h2v14l-13 7-17 10-21 12-17 10-9 4v-13l3-3 27-15 18-11z" fill="#14A3B3"/>
<path transform="translate(546,515)" d="m0 0h2l1 22 5 2 20 12 5 5-12 7-5-1-24-13-22-14-2-3 8-4 10-4z" fill="#1DC2D4"/>
<path transform="translate(119,132)" d="m0 0m-1 1 3 2-4 1v109l-1 24 3 1-2 2h-3l-1 15h-2l-2-20v-87l-1-5h-5l-1 3 1-5v-13l-1-5 6 3 1-1 2-19 4-1 1-3z" fill="#C4E8F5"/>
<path transform="translate(1016,451)" d="m0 0h6l8 16 4 13 3 9 2-3 4-11 3-7 3-10 4-7h6l1 3-4 13-3 8-7 20-5 12-5 13-2 2h-7l-1-2 3-6 3-12-2-3-2-9-5-9-8-24-1-5z" fill="#FEFEFE"/>
<path transform="translate(186,94)" d="m0 0 7 1 2 12v8l1 7-1 4v84l-1 29-2 5-2-2v-11h-3l-2-1 1-1 1-107v-25l-5 2-16 10-4 1 1-3 10-6z" fill="#C6E9F6"/>
<path transform="translate(430,280)" d="m0 0 1 3-6 3-1 13-23 13-17 10-20 11-8 5h-2v-13l9-6 29-17 22-12 13-8z" fill="#14A3B3"/>
<path transform="translate(252,317)" d="m0 0h2l1 10 1 36-6-2-15-9-8-4-9-7-1-3 8-6 9-5 14-8z" fill="#96DEEB"/>
<path transform="translate(484,43)" d="m0 0h13l7 3-3 1 4 6 2 1v2l4 2 7 7 9 13 6 12 2 5v5h-3l-10-20-6-3-8-10-8-6-5-2h-13l-10 8-4 1-4-4v-9l4-7 7-3z" fill="#FEFEFE"/>
<path transform="translate(435,202)" d="m0 0h2l1 8 3 2v66l-6 3h-2l-2 2-2-11 2-13-1-15h2l-1-11-1-3-6 2-18 10-8 5h-6l-4 1 3-3 13-8 18-10 8-4 1-15h3zm0 8 2 4 3-1z" fill="#D2ECF9"/>
<path transform="translate(262,316)" d="m0 0 13 3 8 5 7-1 30 18-4 2-3 7-4 2v-2l-5-1-11-6-3-2v16l-1-2-4-2-4-1v-18l-5-1-14-8-2-6z" fill="#FBFDFD"/>
<path transform="translate(103,175)" d="m0 0h5l2 5v87l-1 7v18l-5-3-2-6v-105z" fill="#FDFDFE"/>
<path transform="translate(264,25)" d="m0 0h9l1 3 7 2 6 5 16 8 12 7 10 4 2 4 3 2 2 12-1 36-4 4-6 2-12-6-11-7-7-4 2-1 18 8 2 4 6 1 4 1 6-2-1-41-1-2-8-2-13-7-17-10-9-5-18-9-1 17h-1v-19z" fill="#FEE95F"/>
<path transform="translate(414,576)" d="m0 0 4 1 19 10 10 7 9 5v20l-11-6-13-8-16-9-2-2z" fill="#14A3B4"/>
<path transform="translate(151,25)" d="m0 0h9l8 3 6 8-1 5-3 2-5-1-4-4-7-1-8 3-7 5-8 13-6 11-7-1-2-3 1-6 7-14 11-12 7-5zm-27 24m-1 2m-1 1m-1 3m-1 1 1 2z" fill="#FEFEFE"/>
<path transform="translate(438,458)" d="m0 0h8l14 7 7 7 9 13 5 10v5l-6 4h-4l-9-19-9-11-5-3-4-1h-8l-7 7h-4l-2-5 1-7z" fill="#F9FCFC"/>
<path transform="translate(484,544)" d="m0 0h6l12 7v12l-6 9-6 5-2 4-6-2-2-2-6-2-1-3v-20l3-3z" fill="#E8F9FD"/>
<path transform="translate(264,240)" d="m0 0 7 1h3l23 13 35 20 16 8-1 11-5 6h-1l-1-9-9-6-21-12-22-13-22-12-5-3 1-3z" fill="#F7FBFD"/>
<path transform="translate(434,503)" d="m0 0 8 2 5 4 10 2 22 12 25 14 11 7 20 12 19 11 5 3-1 3h-2v2l-4 1-5-3-12-5-12-6 1-8-16-8-20-11-18-10-17-10-11-7-9 2-2 1 2-7z" fill="#F57547"/>
<path transform="translate(655,446)" d="m0 0 4 1 7 4 3 4v21l-8 6-5 1-8-7-6-9v-11l4-6z" fill="#FCFDFD"/>
<path transform="translate(504,46)" d="m0 0 8 4 12 11 9 12 7 14 2 12-8 8-7 1-9-16-10-11 1-3 4 2 7 7 5 7-2-4v-3l-3-1-2-3v-5l4 1 5 8 5 12 2 1-1-7-5-12-7-10-7-9-7-6v-2l-4-2-2-5zm22 50 1 2zm1 2 1 2zm2 6 1 2z" fill="#E8F9FD"/>
<path transform="translate(399,558)" d="m0 0 4 5 3 3 1 5v26h-1l-1-18-22 12-12 7h-1v-15h3l2-6 8-7 3-6h5l2-4z" fill="#96DEEB"/>
<path transform="translate(481,496)" d="m0 0 10 4 6 3 5-1 5-2 1 9 5 1v12l-9 1-4 2-5-1-19-11-8-4 1-6h6l5-3z" fill="#20C3D5"/>
<path transform="translate(1407,429)" d="m0 0h10v73h-10z" fill="#FEFEFE"/>
<path transform="translate(594,565)" d="m0 0h6l5 4 4 2h6l9-5v10h6l-1 5-17 10-4-2-19-10-8-5 1-2 11-6z" fill="#1DC2D4"/>
<path transform="translate(493,119)" d="m0 0h9l6 5 2 10-4 6-3 1v31l-1 17-4 1-1-9v-31l1-9-7-1-4-5 2-10z" fill="#E0764C"/>
<path transform="translate(348,509)" d="m0 0 7 1 2 1v2h2v-2l4 2-1 5-3 1 6 2v1l-6 2-10 7-3 2h-4v-2h-4l-1-4-3 3h-2v-2h-4l-1-3 2-6-4-1v-3l9-5h8z" fill="#D1EBF8"/>
<path transform="translate(500,466)" d="m0 0h2l-2 6-1 6 3 9 6 5 10 2 11-1-2 4-2 2-2 5-5 1 1 16 6 3-1 4-7 4h-5l-5-4v-5l1-1h5v-12l-5-1-1-9-3 1-3-5-7-11 1-8 4-10z" fill="#0D8796"/>
<path transform="translate(143,47)" d="m0 0 3 1 1-1h9l6 5v6l-2 3-6-2-7-1-4 2-2 4h10l2 2-1 6-5 6-3 1-5-3-1-4-2 2-6-1-3-1 2-9 6-10 6-5z" fill="#FEFEFE"/>
<path transform="translate(346,497)" d="m0 0h24l16 4 11 6 5 4 5 10-1 9-7 9-7 6-7 4-4-1-7-6-3-3-8-1h-7l-2-1 2-4 5-2v-1l13 1 6 5-3 3 2 5 8-2 8-7 5-6v-10l-4-6-8-6-14-5-6-1-23-1z" fill="#EAF7FB"/>
<path transform="translate(294,502)" d="m0 0 8 1 6 3v12l-4-1-7-1-10 7-2 1-1 8-3 1-8-4-3-4-1-8 5-4z" fill="#E3F7FC"/>
<path transform="translate(428,192)" d="m0 0 2 1v6l-21 12-17 10-24 14-16 9-3 2-6-1 4-1 6-2-3-2h-4l3-2 13-8 11-6 22-13 23-13z" fill="#DF744A"/>
<path transform="translate(572,380)" d="m0 0h2v7l-14 8-11 6-13 8-18 10-15 9-1 1h-7v-1l6-1 1-4-5 1-3-3 7-1 24-13 11-7 20-11z" fill="#DF754B"/>
<path transform="translate(437,482)" d="m0 0h9l10 4 5 7 4 8 3 3-1 5-7 1 2 4-5-2-10-2-5-4-2-2h3l1-4 5-4 3-2-9-3h-2l-1 3h-5l-2-2v-6z" fill="#E5F8FD"/>
<path transform="translate(109,399)" d="m0 0 3 1 1 4 1 15v20h-1l-1-19-11 6-5 3-4-1-2-3-3-1-1-2v-14l1 2 16-8z" fill="#96DEEB"/>
<path transform="translate(1191,433)" d="m0 0 7 1v68l-7 1-1-1v-68z" fill="#FEFEFE"/>
<path transform="translate(153,528)" d="m0 0 8 3 18 10 3 4-2 9-1 4 6 4v3l-16-10-18-10-8-5 4-1 5 2-1-3z" fill="#E9FAFE"/>
<path transform="translate(592,405)" d="m0 0 19 9 3 1 1 2h5v13l1 6h-3v-4l-4 2-8-1-14-8v8h-1z" fill="#96DEEB"/>
<path transform="translate(404,403)" d="m0 0h1v25l-2-2-22 12-3-1-4-12 1-3 18-10 7-5 3-1z" fill="#96DEEB"/>
<path transform="translate(340,427)" d="m0 0 2 1v10l2 5 9 6 2 1h7l7-1v4l-3 7h-5l2 13v4l6 3-2 4-5 3h-6l-7-6 4-3 3-1v-5l-2-1 3-1-1-6-4 1-1-9-8-7-5-7v-12z" fill="#0D8897"/>
<path transform="translate(422,305)" d="m0 0h2v7l-17 10-21 12-20 12-13 7-2-1 3-5-2-2 17-9 15-9 16-9 19-11z" fill="#DF744A"/>
<path transform="translate(175,443)" d="m0 0 20 12 6 4 1 6v10l-1 3-5-2-17-10-4-2z" fill="#14A4B4"/>
<path transform="translate(543,587)" d="m0 0h2v16l-17 9-5 4-8 4h-2v-21l6 2 23-13z" fill="#14A2B2"/>
<path transform="translate(554,514)" d="m0 0 11 7 15 8 6-1 1 10v11l-6-2-16-10-10-6z" fill="#14A2B3"/>
<path transform="translate(473,471)" d="m0 0 6 2 11 8 4 2 8 13 2 2-1 4-3 2-6-1-13-7-9-16-2-5z" fill="#EC622E"/>
<path transform="translate(243,357)" d="m0 0 5 2 18 10 22 13 16 10 1 2v10l-4-1-1-3-10 4-5 3-2-1 7-5 1-2h3v-7l-16-8-13-8-23-13-1-3z" fill="#E3F7FC"/>
<path transform="translate(612,548)" d="m0 0h3l3 9 5 4v3l12-2 5 1 1 8-6 1 1 14 4 4-1 7-4 2-8-1-4-3 1-5 4-2v-2h2l-1-8 1-2h-6l-1-2v-8l-5-3-5-6z" fill="#0D8796"/>
<path transform="translate(123,414)" d="m0 0 14 7 12 8v16l-4 1-22-13z" fill="#14A3B3"/>
<path transform="translate(540,500)" d="m0 0 2 1v2l6 3 1 3v24h-1v-18l-20 12-4 1v-4l-5-2v-9l8-5z" fill="#95DDEA"/>
<path transform="translate(683,453)" d="m0 0 4 2 4 3 6 1 9 6 10 5 11 7 5 2v2l12 6h2l1-2 5 5-2 4-4-1-17-9-14-7-7-5-7-3-6-3 1 13h-2l-3-5v-2l-2-1-8-14v-3l1 1z" fill="#D1EBF8"/>
<path transform="translate(743,478)" d="m0 0 6 2 4 3h11l9-3v3l-5 5-2 4-4 1v17l5 1 1 4-6 6-7-1-6-7 3-3h4v-13l-4 1-1-2v-7l-8-6-1-4z" fill="#0D8797"/>
<path transform="translate(333,500)" d="m0 0h7l-1 3-12 5-8 6-2 6v5l2-1 2 6 3 1 1 7 5 4 18 6-1 4-11-2-10-4-8-5-6-7-2-6 1-10 3-6 8-7z" fill="#DAF4FA"/>
<path transform="translate(307,439)" d="m0 0h8l10 6 4 4-5 4-18 10-6-2-5-3 2-4 5-5v-6l-2-1z" fill="#1EC3D5"/>
<path transform="translate(630,409)" d="m0 0h1v7l4 5 9 7v2l6 2-1 5-18 9h-3l-4-4v-2l6-3v-3l-5-3-1-2v-15l5-1z" fill="#D2ECF9"/>
<path transform="translate(239,504)" d="m0 0 5 1 15 1-1 5-2 4-4 1v16l6 2 1 4-8 6-5-1-5-4-1-4 3-3h3v-12h-5l-1-9-3-1v-5z" fill="#0D8897"/>
<path transform="translate(119,508)" d="m0 0 7 2 13 8 10 6-1 10-7-1-10-4-6-2-3 2-6-4 1-2 2 1-1-13z" fill="#E8F9FD"/>
<path transform="translate(546,577)" d="m0 0h2l1 2v17l-2 2-2-6v-5l-22 13-6 2-5-3v17l-2 2-1-1-1-17 5-6 22-12z" fill="#E3F7FC"/>
<path transform="translate(194,349)" d="m0 0 7 1 10 6 1 5-5 5-8 4-6-1-10-5-2-2 1-6 9-6z" fill="#F9FCFD"/>
<path transform="translate(220,450)" d="m0 0h6l4 4 7 12 2 7-8 6-7-2-7-6v-15z" fill="#E17E4C"/>
<path transform="translate(423,299)" d="m0 0 1 2-1 2h-2v4l-20 11-10 6-21 12-12 7h-3l-1-5 21-12 23-13 17-10z" fill="#CDEBF7"/>
<path transform="translate(382,568)" d="m0 0 1 3-8 7-1 5-3 1-1 5v10l4 4v5l-5 3-5-1-7-3 1-5 6-2v-13h-5v-8l-3-1-1-4 4-1 15 3v-2l5-3z" fill="#0E8898"/>
<path transform="translate(555,206)" d="m0 0 2 1-1 4-15 9-4 4-26 14-8 5-4 1-5-2 2-3 6-2 1-2 9-5 4-1v-2l12-7 3-3 10-5 7-3z" fill="#EC632F"/>
<path transform="translate(259,259)" d="m0 0 6 2 4 3h5l13 8 16 9 22 13 13 7v2l4 1 2 6-12-6-23-13-20-12-24-13-4-2v-2h-2z" fill="#F5FBFC"/>
<path transform="translate(414,594)" d="m0 0 14 8 16 9 8 5 3 2 1-18h1v23l1 4-5-1-12-7-10-6-22-13-1-3 6-1z" fill="#B5E5F2"/>
<path transform="translate(148,86)" d="m0 0v3l-5 5-8 6-16 8-8 6-2 3-1 9-1 28-4 2-1-1v-34l3-7 4-5 14-9z" fill="#FDFDFE"/>
<path transform="translate(429,259)" d="m0 0h3l-1 7-12 5-14 8-20 12-14 8-5 1h-7l4-3 21-12 17-10 19-11z" fill="#E1F6FB"/>
<path transform="translate(508,541)" d="m0 0 5 2 46 27-1 3h-2v2l-4 1-5-3-12-5-12-6 1-8-7-3-4-4v-2l-4-1z" fill="#DF754B"/>
<path transform="translate(492,168)" d="m0 0h5v11l-18 10-2 4-1 14h-1v-17l-5 1v2l-14 7-3 3-10 5 2-4 9-6 4-4 7-5 9-5 3-3 6-3-5 1 1-3 8-4z" fill="#DF754A"/>
<path transform="translate(484,544)" d="m0 0h6l1 4-1 3h-3l-1 5h3l2 4-5 2v-2l-3 1-1 8-3 3 1 3h12l-4 6-6-2-2-2-6-2-1-3v-20l3-3z" fill="#FDFDFD"/>
<path transform="translate(555,509)" d="m0 0h6l14 9 13 6h5v-5l3 4 7 11-1 2h-6l-6-7v-2l-7 3-5-1-18-10-6-5z" fill="#F7FBFC"/>
<path transform="translate(136,32)" d="m0 0h6l-3 9-8 14-3 9-3 5-7-1-2-3 1-6 7-14 11-12zm-12 17m-1 2m-1 1m-1 3m-1 1 1 2z" fill="#E9FAFE"/>
<path transform="translate(466,369)" d="m0 0 17 8 2 2v20l-11-6-8-5z" fill="#14A4B4"/>
<path transform="translate(461,603)" d="m0 0 5 1 7 4 7 5v18l-5-1-11-6-3-3z" fill="#15A6B7"/>
<path transform="translate(553,417)" d="m0 0h2v19l-1 2-14 7-4 1v-18l10-7z" fill="#14A3B3"/>
<path transform="translate(466,331)" d="m0 0 10 5 9 5v20l-5-2-10-6-4-3z" fill="#15A4B4"/>
<path transform="translate(261,324)" d="m0 0 15 8 4 2v20l-16-8-3-3z" fill="#15A5B5"/>
<path transform="translate(447,232)" d="m0 0 5 1 14 8v20l-5-2-13-8z" fill="#15A5B5"/>
<path transform="translate(412,399)" d="m0 0 9 6 9 5 1 20-6-2-13-8z" fill="#14A2B2"/>
<path transform="translate(472,434)" d="m0 0 14 8 4 2v21l-18-10z" fill="#14A2B2"/>
<path transform="translate(370,360)" d="m0 0h2l-1 19-13 8-5 2v-20z" fill="#14A1B1"/>
<path transform="translate(547,232)" d="m0 0h1v19l-9 6-8 4-1-1v-19z" fill="#14A2B2"/>
<path transform="translate(384,179)" d="m0 0h3v18l-9 6-5 3h-4v-19l11-6z" fill="#15A5B6"/>
<path transform="translate(660,449)" d="m0 0 5 3 2 4-1 5v10l-2 6-4 4-6-2-5-4-3-5 1-4 5-3h2l1-7 6 1v-4z" fill="#E4F7FC"/>
<path transform="translate(157,372)" d="m0 0h11l6 5v8l-8 5-5 2-8-5-3-3v-6z" fill="#FDFBFA"/>
<path transform="translate(583,399)" d="m0 0 2 1v19l-10 6-7 4h-1v-19l12-8z" fill="#15A5B5"/>
<path transform="translate(321,360)" d="m0 0 4 1 15 8v20l-5-2-13-8z" fill="#15A5B5"/>
<path transform="translate(414,162)" d="m0 0h1v19l-14 8-4 1v-19z" fill="#14A2B2"/>
<path transform="translate(68,390)" d="m0 0 6 4 6 3 9-1 9-3-2 4-4 4-2 6-3 1-1 20h-4l-1-17h-5l-1-9-6-4-3-4v-3z" fill="#0D8796"/>
<path transform="translate(307,180)" d="m0 0 6 2 11 6 1 1v15l-1 3-5-1-10-6-2-2z" fill="#14A2B3"/>
<path transform="translate(441,417)" d="m0 0 5 2 11 6 1 1 1 20-6-2-12-7z" fill="#14A2B3"/>
<path transform="translate(437,351)" d="m0 0 12 7 5 3 1 20-5-2-14-8v-9z" fill="#14A2B3"/>
<path transform="translate(547,259)" d="m0 0h1v20l-13 7-4 2-1-3v-16z" fill="#15A5B6"/>
<path transform="translate(522,246)" d="m0 0h2v20l-15 8h-3v-13l2-7 13-7z" fill="#15A5B5"/>
<path transform="translate(558,314)" d="m0 0h2v19l-10 7-5 3-3-1v-18l12-7 3-1z" fill="#15A5B5"/>
<path transform="translate(528,369)" d="m0 0h2v20l-15 9h-2v-21l9-4z" fill="#14A2B2"/>
<path transform="translate(291,341)" d="m0 0 15 8 2 2v19l-6-2-11-6z" fill="#14A3B3"/>
<path transform="translate(257,193)" d="m0 0 3 1 1 5h3l3 3 4 3-6-1-3-2-1 4v16l6 2 21 12-4 1-8-4-6-1-9-5-1 2h-2l-1-3-2-1-1-3v-25z" fill="#E2F7FC"/>
<path transform="translate(678,506)" d="m0 0h2v21l-14 7h-3v-19l14-8z" fill="#14A1B1"/>
<path transform="translate(473,246)" d="m0 0 12 6 5 3v20l-16-8-1-1z" fill="#14A3B3"/>
<path transform="translate(153,432)" d="m0 0 6 2 7 4 4 2 1 18-2 2-15-8-1-1z" fill="#15A4B5"/>
<path transform="translate(400,342)" d="m0 0h2v19l-16 10h-1v-21z" fill="#13A0B0"/>
<path transform="translate(436,314)" d="m0 0 5 2 14 8v19l-6-2-8-5-4-3z" fill="#14A3B3"/>
<path transform="translate(529,331)" d="m0 0h1v19l-11 8-6 3v-20z" fill="#14A2B3"/>
<path transform="translate(1568,207)" d="m0 0h16l2 5v7l-3 6-2 1h-9l-5-3v-14z" fill="#FEFEFE"/>
<path transform="translate(277,162)" d="m0 0 6 2 10 6 1 1v19l-14-7-3-2z" fill="#14A3B3"/>
<path transform="translate(300,443)" d="m0 0h2l1 6-4 5-3 2-7 2-8 6-17 8-4 4-4-3-4-2 6-2 7-4 9-5 6-4 6-3v-2l11-6h3z" fill="#CDEAF7"/>
<path transform="translate(559,351)" d="m0 0h1v20l-10 6-7 4v-19l10-7z" fill="#14A2B3"/>
<path transform="translate(632,290)" d="m0 0 5 1 25 13 2 6v-4l6 2 3 2 2 4h4l5 2-1 7-16-7-11-7-14-9-1-3 1-2h-2v2l-5-1-4-3z" fill="#D2ECF9"/>
<path transform="translate(492,439)" d="m0 0h7v21l4-8 2-1v12l-6 5-2 3-6-3-3-2 1-2 1-20-2-1z" fill="#E6F8FD"/>
<path transform="translate(277,465)" d="m0 0 6 1 7 4-4 5-16 9-4 1-6-9 4-5z" fill="#1EC3D5"/>
<path transform="translate(670,18)" d="m0 0 5 2 5 6 3 8v14l-5 9-5 5-5 1-2-3 4-6 5-5 2-5v-9l-5-9-5-3 1-4z" fill="#E8F9FD"/>
<path transform="translate(247,436)" d="m0 0 6 1 5 3 9 20 1 4-7 3-3-4-4-8-8-14v-4z" fill="#DF754A"/>
<path transform="translate(439,469)" d="m0 0 9 1 6 4 9 11 8 17-2 1-1 2-6-7-5-10-8-4-10-2v-1l7-1v-4l-7-5z" fill="#ADDFEC"/>
<path transform="translate(275,420)" d="m0 0h5l4 5 9 19 2 3-6 4h-3l-8-16-7-11v-2z" fill="#E0784A"/>
<path transform="translate(262,428)" d="m0 0h5l6 9 8 16-1 4-6 3-10-19-3-7-3-2 1-3z" fill="#DF764A"/>
<path transform="translate(234,443)" d="m0 0h7l6 10 7 15-1 3h-7l-5-7-7-15-5-2z" fill="#E0784B"/>
<path transform="translate(312,219)" d="m0 0 11 6 20 11 4 4 6-1v3l-7 3-7-3-24-13-7-4 3-2-1-2h2z" fill="#E2754A"/>
<path transform="translate(251,339)" d="m0 0h3l1 22 1 2-6-2-16-10v-3l14-8z" fill="#1EC3D5"/>
<path transform="translate(568,487)" d="m0 0h7l4 4 6 10v2l2 1 2 3v3l-4-4-4-6-4-7v-2l-12 4-18 9-4-1-1-4 7-6 8-5 4 2z" fill="#E0754A"/>
<path transform="translate(288,412)" d="m0 0 5 1 4 5 10 19v3l-8 3-8-16-6-13z" fill="#E17649"/>
<path transform="translate(329,347)" d="m0 0 6 2 9 5 4 1v2l-7 2v8l-5 1-12-7-2-4 2-4 5-2z" fill="#FAFCFD"/>
<path transform="translate(249,313)" d="m0 0h6v14h-1v-10l-8 4-12 7-11 6-5 5 9 9-9-3-2-4-5-4 2-4 12-6 13-8z" fill="#D2ECF9"/>
<path transform="translate(503,95)" d="m0 0h1l2 7 2 4h2v6l-3 4-2 3-6-3-6-9v-9l2-2z" fill="#FDFDFE"/>
<path transform="translate(637,20)" d="m0 0h6v3l-6 7-3 8 1 9 4 6 6 4-1 5-4 2-5-5-5-10-1-4v-11l4-9z" fill="#E7F8FD"/>
<path transform="translate(453,230)" d="m0 0h7l12 6 16 12-1 4-6-1-7-4-1-4-8-2-13-7z" fill="#F8FCFD"/>
<path transform="translate(470,454)" d="m0 0 10 4 8 6v2l4 2 5 1-1 8-2 6-5-2 2-7-2-5-10-2-8-4-5-5v-2z" fill="#F7FBFC"/>
<path transform="translate(387,79)" d="m0 0 5 1 3 5v5l-3 2-1 5-1 21h-3l-1-25-6-3 1-6 4-4z" fill="#E07A4F"/>
<path transform="translate(558,277)" d="m0 0 6 3 9 7v4l-16 8-2-1v-3-2l-4 1 4-5 1-9z" fill="#E9FAFE"/>
<path transform="translate(361,530)" d="m0 0 13 1 6 5-3 3 2 5 8-2 8-7 2-1-2 4-5 5 2 2-7 4-4-1-7-6-3-3-8-1h-7l-2-1 2-4 5-2z" fill="#D0EBF8"/>
<path transform="translate(303,405)" d="m0 0 5 5 6 11 5 9-1 4-3 3-4-4-9-19v-2l-5-2-1-2z" fill="#DF754B"/>
<path transform="translate(572,380)" d="m0 0h2v7l-14 8-11 6-5 3-5 1-1-3 6-2v-3h3l2-4 16-9z" fill="#DF754B"/>
<path transform="translate(75,406)" d="m0 0h1v5h5v6l-1 2-11 4-10 7-6 4-2 4v-9l11-9 4-2 4-5 4-1v-5z" fill="#D2ECF9"/>
<path transform="translate(476,485)" d="m0 0 3 3 4 7h3v-6l5-2h4l3 3 6 8-1 4-3 2-6-1-13-7-5-9z" fill="#DF744A"/>
<path transform="translate(624,414)" d="m0 0h5l-4 1 2 10 3 3 15 8v3l-14 7h-3l-4-4v-2l6-3v-3l-5-3-1-2z" fill="#97DEEB"/>
<path transform="translate(103,175)" d="m0 0h5l2 5v87l-2 1-1-65-1-19z" fill="#E9FAFE"/>
<path transform="translate(498,142)" d="m0 0h4l1 30-1 17-4 1-1-9v-31z" fill="#0D8796"/>
<path transform="translate(355,316)" d="m0 0h3v2l3 1v2l-6 4v16l1 3-4 2h-5l-1-8 2-16 3-3h3z" fill="#E7F9FD"/>
<path transform="translate(226,455)" d="m0 0 3 2 1 6 5 3 1 4-2 2h-3l1 3-6 1-6-6v-10l3-4z" fill="#EE602B"/>
<path transform="translate(427,224)" d="m0 0h4v5l-16 8-12 7-5 3h-6l-4 1 3-3 13-8 18-10z" fill="#E7F8FD"/>
<path transform="translate(505,604)" d="m0 0h3v20l-8 5h-2v-20l6-4z" fill="#17ACBD"/>
<path transform="translate(219,476)" d="m0 0 10 2 1 5-3 11-7 6h-2v-7l-1-7z" fill="#CDEBF7"/>
<path transform="translate(744,352)" d="m0 0 5 3 2 2v8l-4 4-3 1-7-5-1-2v-8l3-2z" fill="#FEE95F"/>
<path transform="translate(422,329)" d="m0 0h2v20l-7 4h-3v-19z" fill="#16A8B8"/>
<path transform="translate(327,65)" d="m0 0h4l1 7-1 36-4 4-6 2-12-6-11-7-7-4 2-1 18 8 2 4 6 1 4 1 6-2-1-41z" fill="#EDAC54"/>
<path transform="translate(369,17)" d="m0 0 2 2-1 5-4 3h-3l-1 3-16 9-3 1v-2h-3l1-4 5-3h2l1 3 1-5 5-4 5-2 1 3h1l1-3-2-1 5-4z" fill="#D1EBF8"/>
<path transform="translate(692,355)" d="m0 0h2l3 10 4 6 2 4 5 2 6 4 5 2 4 9 1 11-2-4-4-9-5-3v-2l-4-1-2-1-1-3-8-7-7-2zm1 12 2 4v-3zm17 14m5 4 3 2v-2z" fill="#FDE965"/>
<path transform="translate(428,192)" d="m0 0 2 1v6l-21 12-5 1-3-1 1-4 16-9z" fill="#E17349"/>
<path transform="translate(261,43)" d="m0 0 2 3 1 24 7 8v2l4 1 3 6-6-1-4-1v-5h-2v2h-2v-2l-5-2 1-29z" fill="#E17F4E"/>
<path transform="translate(588,433)" d="m0 0h3v17l-4 4-22 12-18 11-2-1 10-7 7-4 12-7 10-7 5-5-2-5-7-1-5 1 3-3z" fill="#DF754B"/>
<path transform="translate(297,515)" d="m0 0 7 1 5 4-14 7-8 5h-2l-1-8z" fill="#14A3B3"/>
<path transform="translate(122,414)" d="m0 0h1l1 19 21 12h3v-17l4 2 8 3 7 4-1 2-11-6-2-1 1 19 5 3-2 1-5-3-1-17-1 13-7-1-5-3-10-4-6-3-1-2v-10z" fill="#96DEEB"/>
<path transform="translate(517,194)" d="m0 0v3l-5 8-6 5-3 4-7 2-2-2-4-2 5-1 2-5 3-3 16-8z" fill="#E9FAFE"/>
<path transform="translate(630,405)" d="m0 0 2 1-2 7-1 1h-5l-1 21-3-3-1-2 1-13-5 1-1-1v-9h3l1 3 3 1 1-5z" fill="#0F8E9D"/>
<path transform="translate(153,371)" d="m0 0m16 0 6 4 2 3-1 10-5 3-8 4-5-1-6-4-3-1-2-3v-9l5-5 3 2-4 4v6l4 4 7 3 11-6v-8l-4-4z" fill="#E2834D"/>
<path transform="translate(274,513)" d="m0 0 3 1-1 5 5 1 6 2-2 2-1 8-3 1-8-4-3-4-1-8z" fill="#DAF4FA"/>
<path transform="translate(592,532)" d="m0 0 4 2v2l6 2-1 19-9-4z" fill="#14A1B1"/>
<path transform="translate(194,347)" d="m0 0 7 1 13 8v7l-8 6-6 3h-7l-11-6-3-3v-7l10-7zm0 2-8 4-5 5 1 5 6 4 7 3 6-1 10-6 1-6-9-6-4-2z" fill="#E2804D"/>
<path transform="translate(397,120)" d="m0 0 5 1v7l-4 4-6 3-6-1-5-6v-1l8-1 4-4z" fill="#E9FAFE"/>
<path transform="translate(414,594)" d="m0 0 21 12 1 5-12-2-16-10v-2l6-1z" fill="#BEE7F4"/>
<path transform="translate(686,454)" d="m0 0 5 1 12 6 19 10 9 6 6 1 2-4 4 7v2l3 1 1 4-6-1-9-6v-2l-7-2-9-6-13-7-9-5-4-1z" fill="#E9FAFE"/>
<path transform="translate(125,526)" d="m0 0 16 6 7 2v-6h4v13l-11-2-17-9v-3z" fill="#C5EAF6"/>
<path transform="translate(127,375)" d="m0 0m-2 1 2 1-3 4 17 10 17 9 6 5 6 3 24 14 3 2-1 2-13-8-23-12-6-5-22-12-12-7v-3z" fill="#E69250"/>
<path transform="translate(721,342)" d="m0 0h8l3 6v6l-4 3-6-1-3-2-1-8z" fill="#FEE95F"/>
<path transform="translate(646,28)" d="m0 0 5 1v3l-3 5v6l1 3 4 2-4 5h-3l-5-8v-11z" fill="#D4EDF9"/>
<path transform="translate(446,589)" d="m0 0 12 6 9 6 7 4v1h-7l-7-5v17h-3l-1-18-13-8v-2z" fill="#F0F9FC"/>
<path transform="translate(405,408)" d="m0 0h1v15l5 2 9 7 4 6v3l-6-2-9-5-4-1z" fill="#E8F9FD"/>
<path transform="translate(129,63)" d="m0 0 2 3v2l9 1 6 2 2-1 1-3-3-1 1-2 5 1 1 4-3 5-5 5-5-2-2-5-2 2-6-1-3-1z" fill="#FEFEFE"/>
<path transform="translate(423,299)" d="m0 0 1 2-1 2h-2v4l-20 11-5 1-2-2 5-5 21-12z" fill="#E4F7FC"/>
<path transform="translate(101,391)" d="m0 0v3l-5 5 4 1 5-3 3-2 5 1 1 3v20h-1l-1-19-6 1-14 8-5 1v-3l3-1 2-6z" fill="#CCEAF7"/>
<path transform="translate(661,29)" d="m0 0h6l3 6v9l-4 8-4-1-2-4 3-4-1-6-2-4z" fill="#D5EDF9"/>
<path transform="translate(553,575)" d="m0 0h3v4l9 4-1 3-12 8-2-1v-17z" fill="#1DC1D3"/>
<path transform="translate(634,577)" d="m0 0h1l1 9 4 4-1 7-4 2-8-1-4-3 1-5 4-2v-2h2v-5h1v12l3 1z" fill="#15A6B6"/>
<path transform="translate(403,514)" d="m0 0 3 4 1 9-5 9-8 8h-5l6-7 5-8v-12z" fill="#D7F3FA"/>
<path transform="translate(246,520)" d="m0 0h1v14l-1 3h5v-5l7 2 1 4-8 6-5-1-5-4-1-4 3-3h3z" fill="#15A7B7"/>
<path transform="translate(439,451)" d="m0 0 5 2 15 9 15 8-3 6v3l-8-10-8-6-9-4h-11l3-3z" fill="#E3784A"/>
<path transform="translate(589,510)" d="m0 0 3 3 8 13 2 2 1 4h5l1 3 11-7 12-4 6 1-1 2-8 1-10 4-4 2-3 7-4-1-7-7-9-16-3-5z" fill="#E0754A"/>
<path transform="translate(756,500)" d="m0 0h1v15h4v-10h1v5l5 1 1 4-6 6-7-1-6-7 3-3h4z" fill="#17ACBC"/>
<path transform="translate(761,493)" d="m0 0 2 1 1 6 7 2 7 5 1 3v7l-5 6-5 1 1-2 5-3 2-7-11-3-4-8z" fill="#D2ECF9"/>
<path transform="translate(315,521)" d="m0 0 2 4 2-1 2 6 3 1 1 7 5 4 18 6-1 4-11-2 4-2-13-5-9-7-3-6z" fill="#D2ECF9"/>
<path transform="translate(279,512)" d="m0 0 12 2h4l-1 4-5 4h-6l-7-3-1-4z" fill="#F9FCFD"/>
<path transform="translate(259,266)" d="m0 0 2 1v27h-1l-1-7-5-1v-15z" fill="#E6F8FD"/>
<path transform="translate(136,58)" d="m0 0 3 1 1 6 9 2-1 4-4 1-4-2-9-2-1-5z" fill="#E9FAFE"/>
<path transform="translate(446,498)" d="m0 0h5l5 8v4l-6 1-5-3-5-4h3l1-4z" fill="#F7FBFD"/>
<path transform="translate(451,591)" d="m0 0 6 2 18 10 5 3 4 1v2l5 1 3-1 2-5 7-9 1 2-7 11-5 6-4-1-9-6-17-9-9-6z" fill="#E87A4A"/>
<path transform="translate(364,589)" d="m0 0h1l1 15 3-1 2-2 3 2v5l-5 3-5-1-7-3 1-5 6-2z" fill="#15A5B6"/>
<path transform="translate(330,232)" d="m0 0 10 2 6 4 1 2 6-1v3l-7 3-7-3-9-5z" fill="#F47345"/>
<path transform="translate(509,83)" d="m0 0 5 4 7 10 5 12-1 3h-11l-3-5 1-3v2l9 1-2-7-6-9-3-5z" fill="#EAFAFE"/>
<path transform="translate(579,492)" d="m0 0 5 1 7 11 6 11 2 5 2 7-4-4-8-14-6-9z" fill="#EE602B"/>
<path transform="translate(361,468)" d="m0 0 2 3v6l6 3-2 4-5 3h-6l-7-6 4-3 4 3 4 1z" fill="#139FAF"/>
<path transform="translate(81,417)" d="m0 0h1v11h4v-6l1 2h3l1 5-1 3-2 1h-9l-5-3 1-4 5-3z" fill="#16A8B9"/>
<path transform="translate(472,550)" d="m0 0h2v25l7 2 7 4-3 1-5-2-8-4-3-7v-13z" fill="#E0774B"/>
<path transform="translate(454,494)" d="m0 0h5l5 5 4 5-1 5-6-1-5-5-3-7z" fill="#F8FCFD"/>
<path transform="translate(417,575)" d="m0 0h6l23 13v2h-3l-1 2-9-6-16-9z" fill="#E1F5FB"/>
<path transform="translate(121,50)" d="m0 0 2 2 1 9 3 1 1-3 2 1-5 9-7-1-2-3 1-6zm0 5m-1 1 1 2z" fill="#FDFDFE"/>
<path transform="translate(174,442)" d="m0 0 2 1v21l14 7 1 2-9-3-5-1-1 4 1 3-4-2-13-7 4-1v2h6l4-1z" fill="#BFE7F4"/>
<path transform="translate(286,109)" d="m0 0h7l-1 3-12 7-7 4h-5l1-4 16-9z" fill="#E9FAFE"/>
<path transform="translate(466,241)" d="m0 0 7 2 1 3h-2v12l-2 2h-4z" fill="#E8F9FD"/>
<path transform="translate(656,33)" d="m0 0 4 2 2 6-5 6-4-1-3-4 1-5z" fill="#D4EDF9"/>
<path transform="translate(346,497)" d="m0 0h24l13 3-4 3-11-2-23-1z" fill="#D9F3FA"/>
<path transform="translate(646,594)" d="m0 0h2l-1 3-10 6-7 5-11 4-7 4-2-1 13-8 10-6 7-4z" fill="#E0F4FC"/>
<path transform="translate(195,336)" d="m0 0 5 1 5 4-9-1-1 5-4-1-3 2-12 3-1-2z" fill="#E5844D"/>
<path transform="translate(382,286)" d="m0 0 2 1-2 4v2l-11 6-5 1h-7l4-3z" fill="#CBEBF7"/>
<path transform="translate(260,223)" d="m0 0 9 2 19 11-4 1-8-4-6-1-9-5-1 2z" fill="#F3FAFC"/>
<path transform="translate(437,482)" d="m0 0h6l1 4-4 8h-5l-2-2v-6z" fill="#F6FBFD"/>
<path transform="translate(583,399)" d="m0 0 2 1v19l-5-1-1-14 1-3z" fill="#1092A1"/>
<path transform="translate(439,469)" d="m0 0 9 1 6 4 5 6-2 2-10-5-8-6z" fill="#E1754A"/>
<path transform="translate(202,354)" d="m0 0 5 1-1 6-3 3-9-1-2-5 2-2 7-1z" fill="#E0F5FB"/>
<path transform="translate(282,436)" d="m0 0 6 2v2l2 1v2l5 3-3 3-3 2h-3l-4-9z" fill="#EA6634"/>
<path transform="translate(439,223)" d="m0 0h1v55l-4 1 2-20v-30z" fill="#96DEEB"/>
<path transform="translate(409,234)" d="m0 0 2 1-2 5-11 7h-6l-4 1 3-3 13-8z" fill="#CCEBF7"/>
<path transform="translate(405,553)" d="m0 0 1 2v7l16 11 9 5 1 2-6-2-14-8-5-4-5-3-2-2 1-4z" fill="#EC7949"/>
<path transform="translate(623,417)" d="m0 0h1l1 14 5 2 1 4-5 3h-3v3h-3l-1-4 2-1-1-6 2 2z" fill="#17ADBD"/>
<path transform="translate(263,368)" d="m0 0 11 6 14 8 10 6v1l-7-1-20-12-8-6z" fill="#B5E5F2"/>
<path transform="translate(434,503)" d="m0 0 8 2 5 4 10 2 14 8-2 1-13-6-8-2-6-4-9 2-2 1 2-7z" fill="#DF754A"/>
<path transform="translate(1526,433)" d="m0 0h9v8l-2 2-7-1-2-4v-4z" fill="#FEFEFE"/>
<path transform="translate(1190,416)" d="m0 0h7l3 2-1 7-1 1h-8l-1-9z" fill="#FEFEFE"/>
<path transform="translate(522,455)" d="m0 0h4l1 5h2v2l6 1-3 3-7-1-2-3-11-2 3-2z" fill="#D8F3FA"/>
<path transform="translate(519,522)" d="m0 0 6 2-1 4-7 4h-5l-5-4v-5l1 3 4-2 1 2v2l6-4z" fill="#1198A8"/>
<path transform="translate(580,479)" d="m0 0 1 2h-2l-1 8-9-1h-3l-1 2-5 1-2-2 16-8z" fill="#EE602B"/>
<path transform="translate(546,457)" d="m0 0 2 1-6 4-5 2v13h8l-3 3-3 2h-4l-3-11-1-5 7-5z" fill="#DF754B"/>
<path transform="translate(601,271)" d="m0 0 8 3 4 3 5 3 3 3-5 1-5-3-1-2-7-1-4-4z" fill="#D9F0FA"/>
<path transform="translate(447,232)" d="m0 0 5 1 2 1-2 18-4-1z" fill="#0F8C9B"/>
<path transform="translate(384,179)" d="m0 0h3v18l-5-1-1-16z" fill="#0E8B9B"/>
<path transform="translate(540,603)" d="m0 0 3 1-15 8-5 4-8 4h-2v-3h2v-2l8-4 2-2 7-3 3-2z" fill="#1EC3D5"/>
<path transform="translate(437,610)" d="m0 0 4 2 6 4 5 3-1 3-7-1-8-5-1-4z" fill="#DBF4FA"/>
<path transform="translate(416,600)" d="m0 0h5l3 3 11 4 1 4-12-2-5-3-3-4z" fill="#DFF6FB"/>
<path transform="translate(588,527)" d="m0 0h2l3 5-1 21h-1l-1-14h-2v8h-1l-1-9v-10z" fill="#CAEFF7"/>
<path transform="translate(244,471)" d="m0 0h6v2l-8 2-10 10-2 6h-1v-8l2-5 7-5z" fill="#0F8D9D"/>
<path transform="translate(437,351)" d="m0 0 6 4-2 1v10l-1 6-4-1v-9z" fill="#0E8998"/>
<path transform="translate(156,101)" d="m0 0 5 1-5 6-9 5h-4l1-4z" fill="#D2ECF9"/>
<path transform="translate(692,493)" d="m0 0 2 1-1 33-10 6-16 8 1-4 10-4 8-5 5-3v-31z" fill="#97DEEB"/>
<path transform="translate(512,599)" d="m0 0h1v21l13-7 9-6 6-3 2 1-3 3-11 6-10 6-7 1z" fill="#96DEEB"/>
<path transform="translate(453,494)" d="m0 0 2 4 2 5 6 5 2 2h-5l2 4-5-2-3-2h2l-4-10-5-2 4-3z" fill="#D5EDF9"/>
<path transform="translate(387,92)" d="m0 0 4 1-1 25h-3z" fill="#1290A0"/>
<path transform="translate(301,432)" d="m0 0 4 2 2 3v3l-8 3-3-5v-5z" fill="#E16939"/>
<path transform="translate(256,363)" d="m0 0 6 2 17 10 21 12 1 2-5-1-40-24z" fill="#19B2C3"/>
<path transform="translate(738,474)" d="m0 0 3 4 2 5 3 1 1 4-6-1-9-6v-3h5z" fill="#E0F6FC"/>
<path transform="translate(614,559)" d="m0 0 6 5 3 1v2l-4 3h-2l-1-3h-8l-2-5h7z" fill="#C7E9F6"/>
<path transform="translate(523,434)" d="m0 0h1v21l-4 1v-18z" fill="#0D8695"/>
<path transform="translate(436,314)" d="m0 0 5 2 2 3h-2v15l-4-1z" fill="#0D8796"/>
<path transform="translate(81,360)" d="m0 0 9 1 6 7-7-2-6-2-11 2-5 4 2-4 6-4z" fill="#4ACCDC"/>
<path transform="translate(405,565)" d="m0 0 4 2 5 3v4l-6 1v23h-1l-1-27z" fill="#D6EEF9"/>
<path transform="translate(175,443)" d="m0 0 4 2v14l-2 5h-2z" fill="#0E8C9B"/>
<path transform="translate(430,426)" d="m0 0h2l2 2 7 4v4l-2 1h-6l-3-5z" fill="#E5F8FD"/>
<path transform="translate(514,198)" d="m0 0 2 1-4 6-6 5-3 4h-4l1-4 4-4h2l1-4z" fill="#D2ECF9"/>
<path transform="translate(277,162)" d="m0 0 4 1v18h-4z" fill="#0D8796"/>
<path transform="translate(153,364)" d="m0 0 2 3-4 1v2l-5 3h-3v2l-5 2-4-1 4-4z" fill="#EF602B"/>
<path transform="translate(320,224)" d="m0 0 16 8 2 2-7-1-1 3-6-2-2-2v-3z" fill="#DF754A"/>
<path transform="translate(612,548)" d="m0 0h3l3 9 5 4 1 5-5-2-6-7z" fill="#0E8898"/>
<path transform="translate(680,501)" d="m0 0 2 1-4 3-2 4-8 4-7 2-4-1 22-12z" fill="#EDF8FB"/>
<path transform="translate(522,246)" d="m0 0h2v19l-4-1v-16z" fill="#0D8594"/>
<path transform="translate(327,65)" d="m0 0h4l1 7-2 31h-1l-1-36z" fill="#E07C52"/>
<path transform="translate(592,532)" d="m0 0 4 2v11l-2 8h-2z" fill="#0D8594"/>
<path transform="translate(647,524)" d="m0 0h4v8l-2 7-3-1v-9h-2l2-4z" fill="#0E8A99"/>
<path transform="translate(147,364)" d="m0 0m4 0 2 1-17 9-5 2-4 1 5-5 10-6z" fill="#E97B4A"/>
<path transform="translate(736,397)" d="m0 0 9 2-5 5-12 6-3-4 7-1 2-1z" fill="#FEE95F"/>
<path transform="translate(184,95)" d="m0 0 5 1v12h-1l-1-11-5 2-16 10-4 1 1-3 10-6z" fill="#B3E4F1"/>
<path transform="translate(435,607)" d="m0 0 6 2 9 6 2 2-7-1-6-5h-3zm-9 2h6l4 3v3l-5-2z" fill="#B8E6F3"/>
<path transform="translate(275,422)" d="m0 0h5l2 2 1 5-4 4-3-1-2-9z" fill="#F97747"/>
<path transform="translate(261,227)" d="m0 0 5 2 3 3 2 1 1 5h-4l-7-4z" fill="#E7764A"/>
<path transform="translate(568,255)" d="m0 0 7 1 12 6-1 4-6-2-11-7z" fill="#DAF1FA"/>
<path transform="translate(662,515)" d="m0 0h1v19l14-7h3v-5h1v6l-11 6-5 3h-3z" fill="#96DEEB"/>
<path transform="translate(472,434)" d="m0 0 4 3-1 18h-3z" fill="#0D8594"/>
<path transform="translate(291,341)" d="m0 0 4 3-1 18h-3z" fill="#0D8695"/>
<path transform="translate(396,534)" d="m0 0v3l-6 6 2 2-7 4-4-1-2-4 8-2 8-7z" fill="#CCECF7"/>
<path transform="translate(462,465)" d="m0 0 5 1 7 4-3 6v3l-8-10z" fill="#F07B48"/>
<path transform="translate(441,417)" d="m0 0 4 1-1 20-3-1z" fill="#0E8999"/>
<path transform="translate(389,282)" d="m0 0h5l1 3-12 7-2-1 2-4 4-4z" fill="#E4F7FC"/>
<path transform="translate(153,432)" d="m0 0 5 2-2 15-3 1z" fill="#0F909F"/>
<path transform="translate(558,202)" d="m0 0 4 1-1 5-3 4-8 4-8 5-2-1 9-6 7-4 1-7z" fill="#E0754A"/>
<path transform="translate(474,485)" d="m0 0h2l5 10v5l-2 1v-2h-2l-3-7-2-4z" fill="#D2EDF9"/>
<path transform="translate(150,429)" d="m0 0 10 4 7 4-1 2-11-6-2-1 1 19 5 3-2 1-5-3-1-17h-1z" fill="#B1E4F1"/>
<path transform="translate(501,595)" d="m0 0 1 2-7 11-5 6-4-1-2-4 5 1 3-1 2-5z" fill="#E2754A"/>
<path transform="translate(630,409)" d="m0 0h1v7l4 5 9 7-2 1-8-6-7-2v-5h2z" fill="#E3F7FC"/>
<path transform="translate(321,360)" d="m0 0 4 1 1 3-1 15h-3z" fill="#0D8897"/>
<path transform="translate(346,501)" d="m0 0h23v1l-11 1-7 2h-6l-3-3z" fill="#14A1B1"/>
<path transform="translate(122,414)" d="m0 0h1l1 19 4 4 8 5-2 1-12-6-1-2v-10z" fill="#BCE6F3"/>
<path transform="translate(165,406)" d="m0 0 5 2 24 14 3 2-1 2-13-8-18-10z" fill="#E3874E"/>
<path transform="translate(632,379)" d="m0 0 3 1-1 7-1 1h-5l-2-3 1-3h2v-2z" fill="#1EC3D5"/>
<path transform="translate(466,369)" d="m0 0 8 4-4 2-1 2v12l-3-1z" fill="#1091A0"/>
<path transform="translate(170,440)" d="m0 0 2 1v21l-7-1-2-4 6 2 1-5z" fill="#B5E5F2"/>
<path transform="translate(506,605)" d="m0 0h1v19l-3-1-1-15z" fill="#0D8594"/>
<path transform="translate(573,497)" d="m0 0 4 1 2 3v6l-5-1-3-7z" fill="#129BAA"/>
<path transform="translate(406,433)" d="m0 0 5 1 1 2h-3v12l2 5 3 1-2 1-5-3-1-4z" fill="#DF754B"/>
<path transform="translate(592,394)" d="m0 0 1 2 4 2 4 1 1-4 3 6-1 4-5-1-7-7z" fill="#E0F6FC"/>
<path transform="translate(92,372)" d="m0 0 4 1v6l-6 2-2-2 1-5z" fill="#1EC3D5"/>
<path transform="translate(385,33)" d="m0 0 4 3 1 3v10l-4-2-1-8z" fill="#D2ECF9"/>
<path transform="translate(526,466)" d="m0 0h5l3 7 1 9 3 1-5 1-5-16z" fill="#0E8C9B"/>
<path transform="translate(547,232)" d="m0 0h1v19l-3-1-1-15z" fill="#0F909F"/>
<path transform="translate(754,447)" d="m0 0h7l7 3 4 5-4-2-5-3h-10l-5 2-4 2 4-5z" fill="#42CBDB"/>
<path transform="translate(547,396)" d="m0 0h6l-2 4-7 4-5 1-1-3 6-2v-3z" fill="#F47547"/>
<path transform="translate(459,195)" d="m0 0h2l-1 3-4 2-3 3-10 5 2-4 10-7z" fill="#E05927"/>
<path transform="translate(601,539)" d="m0 0h1l1 21-3 1-6-4v-3l6 2z" fill="#B2E4F1"/>
<path transform="translate(256,482)" d="m0 0 6 2-1 4-6 1-4-4 1-2z" fill="#1EC3D5"/>
<path transform="translate(221,352)" d="m0 0 12 6 2 2v3l-7-2v-2h-2v-2l-5-2z" fill="#EF602B"/>
<path transform="translate(724,345)" d="m0 0 4 1 1 7-4 1-3-2v-6z" fill="#FEFEFE"/>
<path transform="translate(404,309)" d="m0 0 2 1-3 5 2 1-5 3h-5l-1-2 5-5z" fill="#D5EFF9"/>
<path transform="translate(414,576)" d="m0 0h3v14l-1 4h-2z" fill="#0D8695"/>
<path transform="translate(524,568)" d="m0 0h2l2 5-5 6h-2l-1-2v-7h2l1 2z" fill="#1196A6"/>
<path transform="translate(235,467)" d="m0 0h2l2 6-8 6-4-2 4-3v-2l4-2z" fill="#E0774B"/>
<path transform="translate(217,456)" d="m0 0h2l1 15 8 5-1 2-5-2-5-5z" fill="#EB9750"/>
<path transform="translate(366,424)" d="m0 0h3l2 6-1 3h-5l-1-1v-6z" fill="#1EC3D5"/>
<path transform="translate(261,43)" d="m0 0 2 3v24l-2-2-1-19z" fill="#DF754B"/>
<path transform="translate(334,39)" d="m0 0 2 1-3 5-1 4-1-4-10 5-2-1 10-7z" fill="#D3ECF9"/>
<path transform="translate(638,538)" d="m0 0h6l1 5-2 2h-5l-1-1v-5z" fill="#1EC3D5"/>
<path transform="translate(655,353)" d="m0 0 9 3 5 5 3 1v2l-5-1-2-1-2-4-1 2-5-2-2-2z" fill="#DEF3FB"/>
<path transform="translate(523,191)" d="m0 0 2 1-1 14-6 6-7 2 3-3 5-3 3-4v-12z" fill="#E0794B"/>
<path transform="translate(408,453)" d="m0 0 6 2 10 7 1 2-6-1v-2l-5-2-7-4z" fill="#14A1B1"/>
<path transform="translate(68,414)" d="m0 0m-1 1m-2 1h2l-1 3-15 10 2-5 8-6z" fill="#E9FAFE"/>
<path transform="translate(704,334)" d="m0 0 4 1 2 2v5l-7-1-1-4z" fill="#FEFEFE"/>
<path transform="translate(374,14)" d="m0 0h7l1 4-6 3-3-1v-5z" fill="#D2ECF9"/>
<path transform="translate(417,575)" d="m0 0h6l6 4 1 4-6-2-7-4z" fill="#DCF4FA"/>
<path transform="translate(621,283)" d="m0 0 6 2 4 3-1 4-4-1-5-5z" fill="#DAF1FA"/>
<path transform="translate(342,498)" d="m0 0 4 1 22 1v1l-28 1v-2l-3-1z" fill="#B5E7F2"/>
<path transform="translate(263,429)" d="m0 0 6 5-1 5-4-1-2-1-1-6z" fill="#F87747"/>
<path transform="translate(260,51)" d="m0 0h1l1 27h5l-4 2-4-2z" fill="#FEE95F"/>
<path transform="translate(374,550)" d="m0 0 5 2v5h-6l-2-2 1-4z" fill="#1EC3D5"/>
<path transform="translate(664,463)" d="m0 0h1l1 8-2 6-3 1-1-3 1-6 2-1z" fill="#D2ECF9"/>
<path transform="translate(364,240)" d="m0 0 7 1v2l-7 4-3-1 1-5z" fill="#F3FAFC"/>
<path transform="translate(632,524)" d="m0 0 6 1-1 2-8 1-10 4-4 1 5-5z" fill="#DF754B"/>
<path transform="translate(307,439)" d="m0 0h6l1 2-6 3-4-1-1 4-1-4-2-1z" fill="#14A2B2"/>
<path transform="translate(568,385)" d="m0 0 1 2-1 2-5 3-4 2-4-1 5-3 1-4z" fill="#F87547"/>
<path transform="translate(529,331)" d="m0 0h1v19h-2l-1-12-1-5z" fill="#0D8796"/>
<path transform="translate(235,444)" d="m0 0h5v2h2l1 3-4 1-2 2-2-4-2-1v-2z" fill="#FA7647"/>
<path transform="translate(529,370)" d="m0 0h1v19h-3v-17z" fill="#0D8695"/>
<path transform="translate(194,356)" d="m0 0h5l2 2v3l-7 1-2-4z" fill="#18B0C1"/>
<path transform="translate(559,351)" d="m0 0h1v20h-2l-1-18z" fill="#1091A0"/>
<path transform="translate(632,290)" d="m0 0 5 1 5 3-2 1v2l-5-1-4-3z" fill="#D6EEF9"/>
<path transform="translate(523,470)" d="m0 0 4 2 1 4-3 2-4-1v-5z" fill="#1DC2D4"/>
<path transform="translate(618,363)" d="m0 0h1l-1 7h2v-4l5 2v2l-6 3-6-1 4-6z" fill="#A9E3EF"/>
<path transform="translate(742,356)" d="m0 0 5 1 1 5-5 1-2-1v-5z" fill="#FEFEFE"/>
<path transform="translate(558,314)" d="m0 0h2v19h-2l-1-17z" fill="#1094A4"/>
<path transform="translate(399,276)" d="m0 0 3 1-2 3v2l-3 2-4-1-3-2z" fill="#CCEBF7"/>
<path transform="translate(474,605)" d="m0 0 11 6-2 1-7-1-7-4v-1z" fill="#E5F6FA"/>
<path transform="translate(405,553)" d="m0 0 1 2v7l1 3-4-1-3-3 1-4z" fill="#E4754A"/>
<path transform="translate(601,271)" d="m0 0 8 3 1 2-4 2-4-1-3-3z" fill="#D4EDF9"/>
<path transform="translate(473,246)" d="m0 0 3 1-1 19h-2z" fill="#0D8695"/>
<path transform="translate(235,95)" d="m0 0h2v5l-6 2h-5l5-5z" fill="#D5EEF9"/>
<path transform="translate(634,577)" d="m0 0h1l1 9 4 4-1 4-3 1-2-1z" fill="#16A7B8"/>
<path transform="translate(602,383)" d="m0 0 2 2v14l-2-1-1-3v-11z" fill="#1091A1"/>
<path transform="translate(272,228)" d="m0 0 5 2 11 6-4 1-12-6z" fill="#D5F1F9"/>
<path transform="translate(643,522)" d="m0 0 3 1-2 5-7 1v-3z" fill="#E5F5FA"/>
<path transform="translate(423,299)" d="m0 0 1 2-1 2h-2v4l-7-1-1-2z" fill="#CAEAF7"/>
<path transform="translate(547,259)" d="m0 0h1v19h-2l-1-18z" fill="#1195A5"/>
<path transform="translate(459,604)" d="m0 0h1v14h-3v-11z" fill="#FEFEFE"/>
<path transform="translate(589,510)" d="m0 0 3 3 8 13 2 2v3h-2l-10-17z" fill="#E2814D"/>
<path transform="translate(101,499)" d="m0 0 5 2 2 3v4l-4-1-3-4z" fill="#8CDBE9"/>
<path transform="translate(230,464)" d="m0 0 4 1 2 5-2 2h-3l-2-7z" fill="#D95626"/>
<path transform="translate(276,315)" d="m0 0 10 3 3 3 8 5-2 1-18-10z" fill="#DF754B"/>
<path transform="translate(647,523)" d="m0 0h5l1 24 3 2-4 1-1-1v-25z" fill="#96DEEB"/>
<path transform="translate(75,406)" d="m0 0h1v5h4l-1 3h-5l-5 3-2-1 5-4h2v-5z" fill="#D9F3FA"/>
<path transform="translate(127,375)" d="m0 0m-2 1 2 1-3 4 6 4-1 2-9-5v-3z" fill="#E79450"/>
<path transform="translate(159,340)" d="m0 0 5 1 3 4-4 2-3-3-1 3h-1v-6z" fill="#FA7647"/>
<path transform="translate(261,301)" d="m0 0 5 1 2 2h-2l2 6-5-2-2-2z" fill="#E07B4C"/>
<path transform="translate(260,190)" d="m0 0 6 2-1 4 3 5-5-2-3-6z" fill="#E48A4E"/>
<path transform="translate(386,22)" d="m0 0 4 4v6l-3 1-2-1z" fill="#D2ECF9"/>
<path transform="translate(384,13)" d="m0 0 5 1 1 6-5 1-1-4-1-2z" fill="#D0EBF8"/>
<path transform="translate(570,500)" d="m0 0h2l3 6-1 3-6-3 1-5z" fill="#F2F9FC"/>
<path transform="translate(453,494)" d="m0 0 5 10-1 2-4-4-2-3-4-2z" fill="#C1E8F5"/>
<path transform="translate(297,327)" d="m0 0 7 1v2l4 1 4 4-2 1-13-8z" fill="#DF754B"/>
<path transform="translate(273,264)" d="m0 0 14 8 4 3-6-1-9-5v-2l-3-1z" fill="#C9EDF6"/>
<path transform="translate(330,93)" d="m0 0h1v15l-4 4-3 1 1-4 4-1z" fill="#F1BB57"/>
<path transform="translate(185,96)" d="m0 0 3 1v25h-1l-1-22-4-2z" fill="#1EC3D5"/>
<path transform="translate(385,49)" d="m0 0 5 1v8l-5-1z" fill="#D2ECF9"/>
<path transform="translate(222,454)" d="m0 0 3 2-4 4v10l2 4-4-3v-15z" fill="#FA7647"/>
<path transform="translate(507,523)" d="m0 0 1 3 4-2 1 2v2l3 1-1 3-4-1-4-3z" fill="#17ACBC"/>
<path transform="translate(481,496)" d="m0 0 10 4 3 2v2l-5-1-8-5z" fill="#15A5B5"/>
<path transform="translate(460,467)" d="m0 0 4 2 3 3-1 4-6-5v-2l-2-1z" fill="#EBFAFD"/>
<path transform="translate(275,420)" d="m0 0h5l4 5-2 1-2-3h-5v6l-4-5v-2z" fill="#E17F4C"/>
<path transform="translate(527,248)" d="m0 0h2v12l-2 1-1-2v-9z" fill="#E9FAFE"/>
<path transform="translate(425,225)" d="m0 0 2 1-2 4-8 3-4-1z" fill="#C3E8F5"/>
<path transform="translate(243,90)" d="m0 0 5 1-5 6h-2l-1-5z" fill="#D3ECF9"/>
<path transform="translate(341,546)" d="m0 0 7 2-1 4-11-2 4-2z" fill="#B6E5F2"/>
<path transform="translate(766,460)" d="m0 0h4v5l-4 2-3-5z" fill="#1EC3D5"/>
<path transform="translate(130,385)" d="m0 0 11 6 5 3-1 2-14-8z" fill="#E3864E"/>
<path transform="translate(530,241)" d="m0 0h1v17l5-2 3 1-8 4-1-1z" fill="#1EC3D5"/>
<path transform="translate(223,102)" d="m0 0h3l-1 4-4 3-3-1 1-4z" fill="#D2ECF9"/>
<path transform="translate(639,593)" d="m0 0 1 2-3 3-7 1v-2l-2-1h5l1-2z" fill="#1195A4"/>
<path transform="translate(554,514)" d="m0 0 4 3v3h-2l1 11h-2z" fill="#1194A3"/>
<path transform="translate(374,515)" d="m0 0 8 5-4 1-4-1-3-3z" fill="#D2ECF9"/>
<path transform="translate(261,467)" d="m0 0h1v6l-5 1-5-2v-1l6-2z" fill="#D9F4FA"/>
<path transform="translate(250,438)" d="m0 0 4 2 1 4h-2v2l2 1-2 2-3-6z" fill="#EF602B"/>
<path transform="translate(304,394)" d="m0 0h1v10l-4-1-2-4 5-1z" fill="#CAEAF7"/>
<path transform="translate(590,386)" d="m0 0 2 2v6l-2-2h-8l3-3z" fill="#E9FAFE"/>
<path transform="translate(263,368)" d="m0 0 11 6 2 2-3 1-6-4-4-3z" fill="#BAE6F3"/>
<path transform="translate(626,368)" d="m0 0 8 4-1 2-9-2-4 1 2-3z" fill="#40CADB"/>
<path transform="translate(224,326)" d="m0 0 2 1-10 6-4 2-2 2v-4z" fill="#E9FAFE"/>
<path transform="translate(563,280)" d="m0 0 9 6v3l-8-3z" fill="#FEFEFE"/>
<path transform="translate(467,252)" d="m0 0 5 2-1 5-4 1z" fill="#FEFEFE"/>
<path transform="translate(511,542)" d="m0 0 9 2v2h2v2l5 2-2 1-14-8z" fill="#D2ECF9"/>
<path transform="translate(234,443)" d="m0 0h7l1 3h-2v-2l-7 1v2l3 1-1 4-1-3-5-2z" fill="#E3844D"/>
<path transform="translate(248,437)" d="m0 0h2l2 9v2h-2l-3-5v-5z" fill="#F2854B"/>
<path transform="translate(183,346)" d="m0 0h2v2h-2v2l-7 5v-5z" fill="#EF602B"/>
<path transform="translate(377,331)" d="m0 0 4 1-3 5h-5l2-5z" fill="#EC6330"/>
<path transform="translate(315,225)" d="m0 0 7 2 2 4-4 1-5-5z" fill="#F57547"/>
<path transform="translate(433,124)" d="m0 0h3v13l-2 2v-13l-2-1z" fill="#E9FAFE"/>
<path transform="translate(349,575)" d="m0 0 8 3 2 1v7l-2-4-8-5z" fill="#1CBED0"/>
<path transform="translate(419,458)" d="m0 0 12 3-4 3-4-2z" fill="#ED7548"/>
<path transform="translate(355,316)" d="m0 0h3v2l3 1v2l-5 1v-2l-3-1z" fill="#F8FCFD"/>
<path transform="translate(429,245)" d="m0 0h2v14h-2l-1-12z" fill="#0D8897"/>
<path transform="translate(417,232)" d="m0 0m-6 1h6l1 2-7 4-2-1z" fill="#E4F7FC"/>
<path transform="translate(524,230)" d="m0 0 2 1-5 4-8 4-3-1z" fill="#FAFCFD"/>
<path transform="translate(291,96)" d="m0 0 9 3 6 3v2l-4-1-11-6z" fill="#FBE163"/>
<path transform="translate(455,598)" d="m0 0h5l2 3h-2l-1 4-2 2-1-7z" fill="#E7F9FD"/>
<path transform="translate(139,454)" d="m0 0 9 2 5 5h-3l-11-6z" fill="#A9E2EF"/>
<path transform="translate(148,429)" d="m0 0h1v16l-4 1-4-3h6z" fill="#1EC3D5"/>
<path transform="translate(354,278)" d="m0 0h5l2 3-2 1h-6l-2-2z" fill="#FDFDFE"/>
<path transform="translate(254,210)" d="m0 0 2 2 1 10h-3z" fill="#FEFEFE"/>
<path transform="translate(421,600)" d="m0 0 5 1 9 5-2 1-10-4z" fill="#B2E4F1"/>
<path transform="translate(497,570)" d="m0 0v3l-2 5-6 1 1-3z" fill="#EE824B"/>
<path transform="translate(443,490)" d="m0 0 9 3 1 2-5 2-6-6z" fill="#1AB5C6"/>
<path transform="translate(288,412)" d="m0 0 5 1 3 3-1 2-3-3-4 1-1 2-2-4z" fill="#DF754B"/>
<path transform="translate(590,267)" d="m0 0 6 1 1 5-5-2z" fill="#D5EEF9"/>
<path transform="translate(499,600)" d="m0 0 3 4v4h-4l-1-4z" fill="#F8FCFD"/>
<path transform="translate(674,51)" d="m0 0 1 3-3 4h-4l2-4z" fill="#D2ECF9"/>
<path transform="translate(624,334)" d="m0 0 5 3v3l-6-1z" fill="#E9FAFE"/>
<path transform="translate(199,116)" d="m0 0h5l-6 7-1-4z" fill="#D2ECF9"/>
<path transform="translate(214,108)" d="m0 0 1 3-4 3-4-1 3-3z" fill="#D3EDF9"/>
<path transform="translate(386,60)" d="m0 0h2l1 2v7l-3-1z" fill="#D2ECF9"/>
<path transform="translate(255,85)" d="m0 0 2 1-4 4h-5l1-2 2 1v-3z" fill="#D3ECF9"/>
<path transform="translate(698,376)" d="m0 0 2 2 5 2 1 2h-5l-3-2z" fill="#FEF8D6"/>
<path transform="translate(634,341)" d="m0 0 5 1v4l-6-3z" fill="#D6EEFA"/>
<path transform="translate(688,372)" d="m0 0 5 1v3l-5-1z" fill="#F0FAFD"/>
<path transform="translate(678,364)" d="m0 0 1 2 5 2v3l-4-2v-2h-2z" fill="#D7EFFA"/>
<path transform="translate(160,286)" d="m0 0h2l-1 8-2-2z" fill="#ECFAFE"/>
<path transform="translate(160,274)" d="m0 0h2v6l-2 1z" fill="#EDFAFE"/>
<path transform="translate(678,309)" d="m0 0 4 2 2 4-6-4z" fill="#D5EDF9"/>
<path transform="translate(619,342)" d="m0 0h2l-1 7-2-3z" fill="#D6EEF9"/>
<path transform="translate(708,386)" d="m0 0 5 2-3 1z" fill="#FEFEFE"/>
<path transform="translate(646,348)" d="m0 0 3 2-1 2z" fill="#CFEEF8"/>
<path transform="translate(160,325)" d="m0 0 2 1-1 3z" fill="#FEFEFE"/>
<path transform="translate(755,444)" d="m0 0h2l-1 2z" fill="#96DEEB"/>
<path transform="translate(619,356)" d="m0 0" fill="#E9FAFE"/>
<path transform="translate(197,114)" d="m0 0" fill="#D2ECF9"/>
<path transform="translate(341,40)" d="m0 0 2 1z" fill="#D2ECF9"/>
<path transform="translate(687,370)" d="m0 0" fill="#D2ECF9"/>
<path transform="translate(675,312)" d="m0 0" fill="#D2ECF9"/>
<path transform="translate(159,302)" d="m0 0" fill="#FEFEFE"/>
<path transform="translate(157,273)" d="m0 0" fill="#E9FAFE"/>
<path transform="translate(164,267)" d="m0 0" fill="#E9FAFE"/>
<path transform="translate(199,113)" d="m0 0" fill="#D2ECF9"/>
<path transform="translate(509,74)" d="m0 0" fill="#FEFEFE"/>
<path transform="translate(323,51)" d="m0 0" fill="#D2ECF9"/>
<path transform="translate(328,48)" d="m0 0" fill="#D2ECF9"/>
<path transform="translate(338,42)" d="m0 0" fill="#D2ECF9"/>
<path transform="translate(384,26)" d="m0 0" fill="#D2ECF9"/>
</svg>
