<svg xmlns="http://www.w3.org/2000/svg" width="150" height="277" viewBox="0 0 1250 277" version="1.1"><path d="M 780.742 39.224 C 774.186 43.024, 771.309 52.069, 774.362 59.282 C 776.223 63.679, 779.089 66.008, 783.996 67.110 C 800.139 70.737, 811.578 50.739, 799.451 40.091 C 796.384 37.398, 795.194 37.003, 790.215 37.023 C 786.193 37.039, 783.387 37.691, 780.742 39.224 M 296.667 56.667 C 296.300 57.033, 296 72.754, 296 91.602 L 296 125.871 306.587 126.186 C 312.411 126.359, 317.361 126.313, 317.587 126.083 C 317.814 125.854, 318 109.992, 318 90.833 L 318 56 307.667 56 C 301.983 56, 297.033 56.300, 296.667 56.667 M 343 63.313 C 337.225 67.284, 329.913 72.453, 326.750 74.798 L 321 79.063 321 85.032 C 321 88.726, 321.422 91, 322.106 91 C 322.714 91, 324.852 89.728, 326.856 88.173 C 331.932 84.235, 353.981 69, 354.605 69 C 355.258 69, 380.706 86.419, 397 98.019 C 403.875 102.914, 410.063 106.937, 410.750 106.959 C 411.615 106.987, 412 105.162, 412 101.034 L 412 95.069 398.250 85.510 C 390.688 80.252, 378.056 71.462, 370.180 65.975 C 362.305 60.489, 355.330 56.021, 354.680 56.046 C 354.031 56.072, 348.775 59.342, 343 63.313 M 671.500 76.676 L 654.500 77.045 654.500 140.374 L 654.500 203.703 671.500 204.312 C 725.605 206.250, 749.672 195.592, 751.699 168.798 C 752.493 158.302, 750.299 151.247, 744.413 145.361 C 739.823 140.770, 732.045 136.504, 726.250 135.398 C 724.462 135.057, 723 134.390, 723 133.917 C 723 133.443, 725.240 132.092, 727.977 130.915 C 733.435 128.567, 740.376 121.738, 742.520 116.607 C 747.835 103.886, 743.536 88.877, 732.792 82.643 C 723.192 77.074, 710.432 75.831, 671.500 76.676 M 774.500 140.500 L 774.500 204 787.500 204 L 800.500 204 800.500 140.500 L 800.500 77 787.500 77 L 774.500 77 774.500 140.500 M 829.675 81.750 C 830.685 87.758, 830.645 192.860, 829.631 199.250 L 828.877 204 840.972 204 L 853.067 204 852.503 170.250 C 852.193 151.688, 851.459 130.056, 850.872 122.181 C 850.285 114.305, 849.993 107.674, 850.223 107.444 C 850.453 107.214, 853.246 112.261, 856.430 118.660 C 859.649 125.130, 869.570 141.215, 878.780 154.897 C 903.757 192.001, 904.622 193.318, 907.670 198.841 L 910.500 203.971 922 203.986 L 933.500 204 933.500 140.500 L 933.500 77 921.738 77 L 909.976 77 910.545 107.250 C 910.858 123.888, 911.538 143.884, 912.057 151.687 C 913.456 172.736, 913.280 173.612, 909.569 164.026 C 906.932 157.215, 897.179 140.734, 882.034 117.500 C 866.316 93.385, 860.415 83.503, 859.458 79.690 L 858.783 77 843.830 77 L 828.877 77 829.675 81.750 M 992.515 85.750 C 989.489 95.479, 980.946 118.548, 963.720 163.500 C 957.398 180, 951.523 195.863, 950.666 198.750 L 949.108 204 963.939 204 L 978.770 204 979.470 198.750 C 979.855 195.863, 981.820 187.875, 983.835 181 L 987.500 168.500 1010.212 168.231 L 1032.924 167.963 1035.408 176.231 C 1038.176 185.449, 1040.475 194.591, 1041.447 200.250 L 1042.091 204 1057.625 204 L 1073.159 204 1072.505 200.750 C 1071.852 197.510, 1063.118 171.486, 1044.229 116.500 C 1038.750 100.550, 1033.671 85.138, 1032.944 82.250 L 1031.622 77 1013.429 77 L 995.236 77 992.515 85.750 M 1096.668 95.250 C 1095.704 105.287, 1092.461 133.075, 1089.461 157 C 1086.462 180.925, 1084.006 201.287, 1084.004 202.250 C 1084 203.827, 1085.284 204, 1097 204 L 1110 204 1110.016 194.250 C 1110.025 188.887, 1110.701 172.800, 1111.517 158.500 C 1112.334 144.200, 1113.297 124.963, 1113.658 115.750 C 1114.019 106.537, 1114.585 99, 1114.915 99 C 1115.245 99, 1117.027 105.412, 1118.875 113.250 C 1120.723 121.088, 1126.297 139.200, 1131.262 153.500 C 1136.227 167.800, 1141.897 185.012, 1143.862 191.750 L 1147.436 204 1158.082 204 L 1168.728 204 1169.339 199.545 C 1169.675 197.094, 1172.922 186.857, 1176.555 176.795 C 1189.269 141.583, 1193.972 127.390, 1197.514 113.541 C 1199.478 105.863, 1201.257 99.409, 1201.468 99.199 C 1202.270 98.397, 1202.930 108.735, 1204.459 146 C 1205.328 167.175, 1206.303 188.887, 1206.627 194.250 L 1207.216 204 1221.108 204 C 1229.449 204, 1235 203.611, 1235 203.027 C 1235 202.491, 1233.217 180.779, 1231.037 154.777 C 1228.858 128.775, 1226.766 100.638, 1226.389 92.250 L 1225.703 77 1206.991 77 L 1188.279 77 1187.707 81.827 C 1186.864 88.945, 1182.672 102.885, 1174.273 126.500 C 1170.166 138.050, 1165.323 153.350, 1163.513 160.500 C 1160.407 172.765, 1160.181 173.274, 1159.525 169.500 C 1157.866 159.959, 1153.738 144.234, 1148.500 127.500 C 1141.774 106.014, 1136 84.052, 1136 79.957 L 1136 77 1117.211 77 L 1098.422 77 1096.668 95.250 M 1008.499 99.750 C 1007.596 102.912, 1003.739 114.976, 999.928 126.558 C 996.118 138.140, 993 147.928, 993 148.308 C 993 148.689, 1000.923 149, 1010.607 149 C 1026.023 149, 1028.141 148.809, 1027.625 147.465 C 1026.236 143.845, 1012.995 102.118, 1012.007 98.250 C 1011.411 95.912, 1010.747 94, 1010.532 94 C 1010.318 94, 1009.403 96.588, 1008.499 99.750 M 680.607 95.678 C 678.866 96.160, 678.766 96.924, 679.357 105.254 C 679.711 110.233, 680 117.838, 680 122.154 L 680 130 687.951 130 C 702.339 130, 712.208 126.635, 716.049 120.420 C 718.557 116.362, 718.655 107.792, 716.248 103.069 C 713.279 97.241, 708.468 95.528, 694.500 95.327 C 687.900 95.232, 681.648 95.390, 680.607 95.678 M 363.557 114.223 C 361.551 117.085, 361.489 128.432, 363.428 137.685 C 365.571 147.911, 370.772 179.621, 371.487 186.818 C 372.474 196.751, 370.868 196, 391.107 196 C 406.345 196, 409 196.223, 409 197.500 C 409 198.779, 406.291 199, 390.622 199 C 376.704 199, 371.981 198.683, 371.159 197.692 C 370.562 196.972, 369.596 191.460, 369.012 185.442 C 367.572 170.590, 362.747 143.745, 361.439 143.311 C 360.787 143.095, 358.305 153.858, 354.995 171.249 L 349.612 199.538 322.556 199.173 C 307.675 198.972, 295.188 198.513, 294.806 198.154 C 294.425 197.794, 296.782 184.225, 300.044 168 C 303.306 151.775, 305.980 138.387, 305.987 138.250 C 305.994 138.113, 316.398 138, 329.107 138 C 348.477 138, 352.127 138.226, 351.678 139.397 C 351.383 140.165, 350.358 144.440, 349.401 148.897 L 347.659 157 328.805 157 L 309.950 157 308.975 159.565 C 308.439 160.976, 308 162.326, 308 162.565 C 308 162.804, 318.341 163, 330.981 163 L 353.962 163 354.492 160.750 C 355.528 156.351, 360 133.711, 360 132.862 C 360 132.388, 346.725 132, 330.500 132 C 313.235 132, 301 132.381, 301 132.919 C 301 133.424, 298.300 147.035, 295 163.166 C 291.429 180.622, 289 195.028, 289 198.754 L 289 205.014 355.250 204.757 L 421.500 204.500 421.778 160.500 C 421.930 136.300, 421.809 115.487, 421.509 114.250 L 420.962 112 393.038 112 C 365.315 112, 365.102 112.016, 363.557 114.223 M 368.090 119.392 C 367.365 120.265, 367.017 123.304, 367.200 127.163 L 367.500 133.500 388 133.500 L 408.500 133.500 408.500 126 L 408.500 118.500 388.890 118.229 C 372.842 118.008, 369.063 118.219, 368.090 119.392 M 370 126.500 L 370 131 388.500 131 L 407 131 407 126.500 L 407 122 388.500 122 L 370 122 370 126.500 M 315.119 145.443 C 314.503 147.886, 314 151.053, 314 152.480 L 314 155.075 329.382 154.919 C 337.842 154.834, 345.177 154.479, 345.681 154.132 C 346.800 153.361, 349 146.070, 349 143.134 C 349 141.042, 348.676 141, 332.619 141 L 316.237 141 315.119 145.443 M 380.750 148.080 C 379.404 148.864, 379 150.428, 379 154.850 C 379 158.012, 379.540 161.140, 380.200 161.800 C 382.068 163.668, 388.443 163.272, 390.345 161.171 C 392.674 158.597, 392.566 150.823, 390.171 148.655 C 388.132 146.810, 383.425 146.522, 380.750 148.080 M 398.245 148.155 C 396.481 149.919, 396.619 160.439, 398.426 161.939 C 399.210 162.590, 401.798 162.982, 404.176 162.811 L 408.500 162.500 408.500 155 L 408.500 147.500 403.995 147.205 C 401.356 147.033, 398.974 147.426, 398.245 148.155 M 683.250 147.664 L 680 148.127 680 160.917 C 680 167.951, 680.289 176.473, 680.642 179.853 L 681.285 186 691.506 186 C 703.400 186, 710.703 184.806, 716.767 181.871 C 721.726 179.470, 723.820 176.745, 725.107 171.020 C 727.275 161.369, 722.015 153.320, 711.394 150.040 C 705.228 148.135, 689.357 146.796, 683.250 147.664 M 321.494 168.250 C 320.561 170.878, 316.670 188.676, 316.236 192.298 L 315.781 196.096 322.597 195.798 L 329.414 195.500 332.661 182 C 334.447 174.575, 335.929 168.162, 335.954 167.750 C 336.037 166.399, 321.978 166.885, 321.494 168.250 M 302.378 169.750 C 302.070 170.713, 301.318 172.542, 300.706 173.815 C 298.747 177.888, 300.779 179.459, 308.444 179.798 C 316.059 180.134, 318.259 179.026, 317.801 175.086 C 317.511 172.598, 317.222 172.489, 310.145 172.204 C 303.409 171.933, 302.834 171.744, 303.302 169.954 C 303.936 167.528, 303.144 167.353, 302.378 169.750 M 345.001 170.799 C 340.877 170.963, 337.159 171.441, 336.738 171.862 C 336.318 172.282, 335.759 174.847, 335.495 177.563 C 335.216 180.439, 335.369 181.949, 335.861 181.180 C 336.433 180.284, 339.002 179.867, 343.843 179.882 C 351.736 179.907, 353.433 178.643, 352.810 173.204 C 352.500 170.503, 352.493 170.500, 345.001 170.799 M 398.655 172.829 C 396.554 175.151, 396.522 180.872, 398.594 183.830 C 399.893 185.686, 400.955 186.050, 404.344 185.803 L 408.500 185.500 408.802 179.666 C 408.981 176.225, 408.623 173.251, 407.930 172.416 C 406.253 170.395, 400.631 170.646, 398.655 172.829 M 386 180.800 C 386 181.911, 388.197 184, 389.367 184 C 389.898 184, 390.037 183.704, 389.675 183.342 C 389.313 182.980, 389.519 182.080, 390.131 181.342 C 391.015 180.277, 390.703 180, 388.622 180 C 387.180 180, 386 180.360, 386 180.800 M 302.872 184.721 C 299.563 185.072, 299.191 185.430, 298.633 188.803 C 297.411 196.195, 297.227 196, 305.441 196 C 309.534 196, 313.153 195.561, 313.485 195.024 C 313.817 194.487, 314.356 191.787, 314.684 189.024 L 315.279 184 310.889 184.168 C 308.475 184.261, 304.868 184.509, 302.872 184.721 M 334.115 186.250 C 333.656 187.488, 332.972 190.188, 332.595 192.250 L 331.909 196 339.783 196 L 347.657 196 348.828 190.924 C 349.473 188.132, 350 185.432, 350 184.924 C 350 184.416, 346.614 184, 342.475 184 C 335.586 184, 334.880 184.190, 334.115 186.250" stroke="none" fill="#fbfbfb" fill-rule="evenodd"/><path d="M 56.594 77.644 C 43.433 80.465, 34.100 87.025, 29.280 96.839 C 26.860 101.768, 26.502 103.664, 26.516 111.500 C 26.529 119.231, 26.925 121.346, 29.323 126.500 C 33.804 136.130, 39.871 140.996, 58.891 150.215 C 78.236 159.590, 82.304 162.137, 85.063 166.602 C 87.760 170.965, 87.851 177.382, 85.265 180.852 C 81.646 185.709, 75.216 187.308, 59.500 187.261 C 47.786 187.226, 44.079 186.821, 36.797 184.779 L 28.093 182.338 27.033 187.419 C 26.450 190.213, 25.454 194.878, 24.820 197.783 C 24.122 200.979, 24.029 203.412, 24.583 203.941 C 26.500 205.768, 45.574 208.133, 58.369 208.130 C 86.532 208.124, 102.825 201.150, 109.875 186.086 C 112.147 181.231, 112.489 179.192, 112.489 170.500 C 112.489 161.713, 112.160 159.795, 109.773 154.691 C 105.347 145.226, 98.011 138.949, 83.160 131.920 C 52.787 117.545, 51.772 116.790, 51.597 108.475 C 51.513 104.474, 51.932 103.451, 54.649 101.023 C 58.326 97.736, 65.226 96, 74.608 96 C 82.265 96, 93.787 97.661, 99.076 99.527 L 102.821 100.848 103.896 94.674 C 106.354 80.552, 106.393 79.256, 104.371 78.657 C 94.877 75.844, 67.679 75.267, 56.594 77.644 M 447.690 77.749 L 430.881 78.049 431.648 80.274 C 432.631 83.126, 432.590 199.754, 431.605 202.750 L 430.865 205 444.689 205 L 458.513 205 458.146 179.500 L 457.779 154 464.640 154.024 C 477.725 154.071, 484.574 156.948, 489.431 164.438 C 492.067 168.503, 500.259 188.679, 503.566 199.250 L 505.365 205 519.683 205 C 527.557 205, 533.999 204.662, 533.998 204.250 C 533.997 203.838, 531.359 196.975, 528.136 189 C 516.746 160.822, 509.684 149.430, 500.795 144.895 C 498.708 143.831, 497 142.750, 497 142.494 C 497 142.238, 499.745 140.643, 503.101 138.949 C 515.834 132.521, 522.228 122.188, 522.319 107.887 C 522.432 90.377, 512.036 80.822, 489.845 78.040 C 485.284 77.468, 477.716 77.101, 473.026 77.224 C 468.337 77.347, 456.936 77.583, 447.690 77.749 M 143.992 83.750 C 143.988 86.912, 143.546 93.325, 143.010 98 C 142.474 102.675, 141.770 108.975, 141.445 112 C 140.721 118.762, 131.251 196.055, 130.511 201.250 L 129.976 205 142.834 205 L 155.692 205 156.344 190.750 C 157.483 165.836, 160.039 116.810, 160.659 108 C 161.358 98.051, 161.480 98.268, 166.279 118 C 168.219 125.975, 174.319 145.400, 179.835 161.166 C 185.351 176.932, 190.683 193.242, 191.682 197.410 L 193.500 204.989 204.029 204.994 L 214.557 205 216.419 197.750 C 217.444 193.762, 222.534 178.800, 227.731 164.500 C 237.009 138.970, 241.983 123.141, 245.563 107.750 C 246.554 103.487, 247.650 100, 247.997 100 C 248.589 100, 251.294 150.897, 252.688 188.250 L 253.313 205 267.156 205 L 281 205 281 201.363 C 281 199.363, 279.438 179.226, 277.528 156.613 C 274.772 123.974, 272 85.005, 272 78.889 C 272 78.400, 263.715 78, 253.588 78 L 235.176 78 234.475 82.250 C 233.261 89.610, 227.418 108.836, 220.723 127.500 C 213.585 147.398, 209.283 161.653, 208.340 168.536 C 207.486 174.764, 206.380 174.923, 205.586 168.934 C 204.622 161.671, 200.763 147.207, 193.996 125.500 C 188.064 106.472, 183.740 90.217, 182.491 82.250 L 181.824 78 162.912 78 L 144 78 143.992 83.750 M 539 88.536 L 539 99.072 547.750 98.556 C 552.563 98.273, 560.866 97.799, 566.202 97.504 L 575.903 96.966 576.610 100.733 C 576.999 102.805, 577.038 127.112, 576.698 154.750 L 576.079 205 589.290 205 L 602.500 205 602.144 150.917 L 601.788 96.835 614.644 97.442 C 621.715 97.776, 630.087 98.286, 633.250 98.575 L 639 99.099 639.011 92.300 C 639.017 88.560, 639.301 83.813, 639.642 81.750 L 640.262 78 589.631 78 L 539 78 539 88.536 M 458.750 96.689 C 457.242 97.083, 457 98.429, 457 106.418 C 457 111.517, 457.297 120.545, 457.660 126.481 L 458.321 137.273 467.910 136.703 C 487.288 135.550, 495.436 130.491, 497.451 118.363 C 499.020 108.912, 493.632 100.156, 484.596 97.473 C 479.942 96.091, 463.005 95.577, 458.750 96.689 M 308.551 142.250 C 308.189 143.422, 305.431 155.772, 304.419 160.750 C 304.070 162.467, 304.421 163, 305.901 163 C 307.884 163, 309.395 159.533, 312.004 149 C 312.617 146.525, 313.348 143.713, 313.627 142.750 C 314.018 141.402, 313.538 141, 311.536 141 C 310.107 141, 308.763 141.563, 308.551 142.250 M 382.494 150.839 C 382.222 151.111, 382 153.087, 382 155.230 C 382 159.024, 382.086 159.118, 385.250 158.813 C 388.195 158.529, 388.528 158.160, 388.803 154.871 C 389.084 151.504, 388.886 151.210, 386.047 150.794 C 384.365 150.547, 382.766 150.567, 382.494 150.839 M 399.411 153.498 C 398.415 157.468, 399.545 159, 403.469 159 C 406.922 159, 407 158.912, 407 155 C 407 151.099, 406.913 151, 403.519 151 C 400.641 151, 399.930 151.433, 399.411 153.498 M 303.236 169.422 C 303.042 171.760, 303.293 171.855, 310.520 172.172 C 314.637 172.352, 318.010 172.275, 318.016 172 C 318.022 171.725, 318.299 170.488, 318.630 169.250 C 319.218 167.056, 319.038 167, 311.335 167 C 303.700 167, 303.430 167.081, 303.236 169.422 M 338.667 167.667 C 338.300 168.033, 338 168.953, 338 169.710 C 338 170.780, 339.616 171.022, 345.239 170.794 C 351.200 170.552, 352.538 170.191, 352.813 168.750 C 353.105 167.220, 352.278 167, 346.240 167 C 342.441 167, 339.033 167.300, 338.667 167.667 M 300.998 180.750 C 300.999 181.630, 303.056 182, 307.941 182 C 317.432 182, 317.891 180.241, 308.508 179.829 C 302.988 179.587, 300.996 179.832, 300.998 180.750 M 339.750 179.810 C 333.581 180.321, 335.512 182.001, 342.250 181.985 C 349.618 181.967, 353.330 180.431, 347.370 179.867 C 345.242 179.665, 341.813 179.640, 339.750 179.810" stroke="none" fill="#e4b416" fill-rule="evenodd"/></svg>
