<!-- <svg xmlns="http://www.w3.org/2000/svg" version="1.0" width="100" height="277" viewBox="0 0 899.000000 289.000000" preserveAspectRatio="xMidYMid meet" style="height:3rem!important"> -->
<svg xmlns="http://www.w3.org/2000/svg" version="1.0" width="150" height="277" viewBox="0 0 900.000000 280.000000" preserveAspectRatio="xMidYMid meet" style="height:3rem!important">
 <defs>
    <filter id="white-shadow" x="-50%" y="-50%" width="200%" height="200%">
      <feDropShadow dx="0" dy="0" stdDeviation="1" flood-color="white"/>
    </filter>
  </defs>
<g transform="translate(0.000000,289.000000) scale(0.100000,-0.100000)" fill="#000000" stroke="none">
<path d="M8565 2842 c-82 -24 -162 -48 -177 -54 l-28 -10 0 -159 0 -159 -90 0 -90 0 -1 -102 c-1 -57 -2 -116 -3 -133 l-1 -30 93 -3 92 -3 0 -408 c0 -446 6 -515 54 -610 53 -105 146 -165 283 -184 78 -11 208 0 266 22 l27 11 0 147 0 148 -94 0 c-91 0 -96 1 -125 30 -17 16 -36 46 -41 66 -6 22 -9 183 -8 406 l3 368 133 3 132 3 0 134 0 135 -135 0 -135 0 -2 213 -3 213 -150 -44z" fill="#097AC6"/>
<path d="M242 2713 l-192 -96 0 -89 0 -88 187 95 c103 52 193 95 199 95 6 0 96 -43 200 -95 104 -52 190 -95 192 -95 1 0 1 39 0 87 l-3 87 -165 84 c-91 46 -179 90 -196 97 -29 13 -37 10 -222 -82z" fill="#37C62C"/>
<path d="M622 2805 c3 -3 65 -36 139 -74 l134 -68 3 -201 2 -202 193 0 c231 0 295 -12 344 -64 90 -96 79 -335 -18 -408 -42 -31 -93 -38 -311 -38 l-208 0 0 -280 0 -280 268 0 c260 0 268 -1 318 -24 97 -45 134 -124 134 -286 0 -137 -21 -207 -78 -261 -55 -52 -101 -59 -392 -59 l-250 0 0 -280 0 -280 373 0 c204 0 399 5 432 10 130 20 171 29 200 44 17 9 35 16 40 16 6 0 36 20 68 44 93 70 146 161 190 326 28 110 37 561 12 682 -38 189 -93 283 -189 328 -34 16 -76 32 -95 37 l-34 8 29 15 c142 73 162 136 171 529 6 309 2 345 -55 456 -49 93 -165 211 -249 254 -121 60 -128 61 -677 61 -275 0 -497 -2 -494 -5z m1029 -91 c215 -64 363 -246 388 -475 l7 -69 -27 0 c-25 0 -27 4 -34 57 -28 226 -184 405 -378 432 -37 5 -71 12 -77 16 -11 7 -14 38 -3 48 11 12 67 8 124 -9z m27 -165 c119 -53 210 -183 227 -322 l7 -58 -29 3 c-25 3 -29 8 -35 48 -23 157 -137 282 -270 299 -54 6 -68 21 -54 57 8 21 72 10 154 -27z m-47 -134 c75 -39 137 -128 142 -203 2 -33 -1 -37 -25 -40 -24 -3 -28 1 -34 35 -8 50 -47 116 -79 137 -14 10 -45 20 -68 24 -43 8 -56 25 -43 59 7 17 61 11 107 -12z" fill="#37C62C"/>
<path d="M295 2479 c-38 -21 -109 -57 -157 -81 l-88 -43 0 -87 c0 -74 2 -86 15 -81 14 5 110 54 266 135 l57 29 -2 81 c0 45 -5 82 -11 84 -5 1 -41 -15 -80 -37z" fill="#37C62C"/>
<path d="M492 2428 l3 -82 160 -83 c88 -45 164 -82 168 -82 4 -1 6 38 5 85 l-3 87 -155 78 c-85 44 -161 79 -168 79 -10 0 -12 -20 -10 -82z" fill="#37C62C"/>
<path d="M2810 2480 c-68 -11 -147 -33 -180 -51 -101 -55 -153 -110 -198 -207 -22 -49 -26 -71 -27 -152 0 -70 5 -108 19 -145 53 -140 146 -209 421 -310 143 -53 195 -107 195 -202 0 -42 -4 -51 -44 -89 -35 -33 -57 -45 -103 -55 -76 -16 -192 0 -306 42 -45 16 -88 31 -96 32 -20 3 -133 -259 -117 -271 19 -16 150 -60 232 -78 108 -24 352 -24 448 -1 265 66 403 257 361 500 -17 99 -56 168 -124 224 -67 54 -112 78 -277 143 -162 64 -200 89 -226 146 -37 86 6 174 99 202 86 26 242 4 344 -49 l39 -20 19 43 c11 24 35 79 55 122 41 89 44 83 -44 117 -143 54 -356 80 -490 59z" fill="#097AC6"/>
<path d="M4010 2479 c-93 -11 -236 -43 -315 -72 l-60 -22 0 -690 0 -690 180 0 180 0 -3 570 c-2 345 0 575 6 584 13 19 116 41 193 41 131 0 223 -50 253 -137 14 -40 16 -116 16 -555 l0 -508 183 2 182 3 -4 555 c-4 629 -12 572 79 614 36 17 65 21 140 21 83 0 101 -3 140 -25 49 -28 85 -74 100 -131 6 -23 10 -228 10 -536 l-1 -498 183 0 183 0 1 200 c0 110 -2 369 -5 575 l-6 375 -32 67 c-55 116 -159 206 -281 242 -177 52 -435 18 -616 -82 l-70 -38 -60 41 c-132 88 -335 121 -576 94z" fill="#097AC6"/>
<path d="M6350 2484 c-160 -20 -410 -82 -410 -102 0 -4 19 -59 42 -123 l42 -115 90 28 c237 74 450 73 535 -5 38 -36 61 -95 61 -164 0 -53 -3 -63 -17 -63 -10 0 -79 -7 -153 -15 -452 -48 -645 -168 -681 -423 -28 -197 62 -373 234 -452 127 -60 295 -86 482 -76 182 9 370 48 458 93 l28 14 -6 496 c-6 526 -9 568 -57 670 -27 58 -109 143 -167 173 -75 38 -187 60 -321 64 -69 3 -141 2 -160 0z m360 -998 c0 -205 -2 -225 -17 -230 -10 -3 -52 -11 -93 -17 -166 -25 -317 16 -372 102 -28 43 -33 69 -28 144 8 139 153 207 478 223 l32 2 0 -224z" fill="#097AC6"/>
<path d="M7730 2479 c-119 -12 -231 -35 -327 -67 l-83 -26 0 -693 0 -693 182 2 182 3 -3 576 c-2 474 0 577 11 586 36 30 209 40 314 18 l30 -7 13 64 c6 34 20 101 30 148 11 47 18 87 16 88 -8 9 -289 10 -365 1z" fill="#097AC6"/>
<path d="M300 2220 c-41 -22 -80 -40 -87 -40 -6 0 -13 -3 -15 -7 -1 -5 -35 -24 -75 -43 l-72 -35 -1 -88 c0 -49 3 -87 8 -85 46 22 168 84 172 88 3 3 38 21 78 40 l73 36 3 87 c2 48 1 87 -3 87 -3 -1 -40 -19 -81 -40z" fill="#37C62C"/>
<path d="M490 2172 l0 -88 33 -15 c17 -8 91 -45 163 -82 72 -37 134 -67 138 -67 3 0 6 38 6 85 l0 85 -47 23 c-27 12 -50 24 -53 27 -5 5 -128 67 -202 101 l-38 18 0 -87z" fill="#37C62C"/>
<path d="M203 1912 l-152 -77 -1 -87 0 -88 23 9 c13 5 75 37 138 71 63 33 124 63 137 67 31 7 32 12 36 103 3 69 2 80 -13 79 -9 0 -84 -35 -168 -77z" fill="#37C62C"/>
<path d="M490 1906 l0 -84 38 -16 c20 -8 55 -25 77 -37 22 -12 49 -26 59 -32 11 -5 53 -26 93 -47 l73 -38 0 88 0 88 -57 29 c-32 16 -67 34 -78 40 -113 59 -184 93 -194 93 -7 0 -11 -28 -11 -84z" fill="#37C62C"/>
<path d="M205 1651 l-150 -78 -3 -87 c-2 -49 1 -86 6 -84 5 1 79 39 165 82 l157 79 0 83 c0 61 -3 84 -12 83 -7 0 -80 -35 -163 -78z" fill="#37C62C"/>
<path d="M490 1647 l0 -83 163 -82 c90 -45 166 -82 170 -82 4 0 7 38 7 83 l0 84 -161 81 c-89 45 -165 82 -170 82 -5 0 -9 -37 -9 -83z" fill="#37C62C"/>
<path d="M213 1396 l-161 -81 -1 -87 c-1 -72 2 -88 14 -88 8 0 15 5 15 10 0 6 4 10 9 10 14 0 44 14 176 83 l120 63 3 87 c1 48 -1 86 -5 86 -4 -1 -81 -38 -170 -83z" fill="#37C62C"/>
<path d="M490 1390 l0 -87 170 -87 170 -86 0 88 0 88 -170 86 -170 85 0 -87z" fill="#37C62C"/>
<path d="M235 1144 c-66 -35 -135 -71 -152 -79 l-33 -15 0 -85 c0 -100 -21 -100 187 4 93 46 144 77 148 90 3 11 5 50 4 86 -2 53 -5 65 -18 64 -9 -1 -70 -30 -136 -65z" fill="#37C62C"/>
<path d="M492 1124 l3 -86 131 -66 c71 -37 147 -75 167 -84 l37 -18 0 88 0 88 -165 82 c-90 45 -167 82 -170 82 -3 0 -4 -39 -3 -86z" fill="#37C62C"/>
<path d="M300 917 c-36 -18 -67 -34 -70 -37 -3 -3 -44 -25 -93 -48 l-87 -44 0 -84 c0 -46 2 -84 5 -84 3 0 79 36 168 81 l162 81 0 84 c0 50 -4 84 -10 83 -5 0 -39 -15 -75 -32z" fill="#37C62C"/>
<path d="M492 863 l3 -86 155 -78 c85 -43 161 -78 168 -79 10 0 12 20 10 83 l-3 82 -140 73 c-137 70 -181 92 -191 92 -3 0 -3 -39 -2 -87z" fill="#37C62C"/>
<path d="M2444 687 c-2 -7 -3 -114 -2 -237 3 -225 3 -225 26 -228 17 -3 22 2 22 17 0 26 4 26 39 0 16 -12 44 -21 63 -21 86 0 133 62 132 172 -2 106 -42 160 -118 160 -22 0 -53 -9 -72 -21 l-34 -21 0 96 0 96 -25 0 c-14 0 -28 -6 -31 -13z m192 -200 c52 -45 42 -186 -15 -217 -30 -16 -51 -12 -88 16 -32 24 -33 28 -33 92 1 69 8 86 50 115 33 23 54 21 86 -6z" fill="#37C62C"/>
<path d="M4220 605 l0 -95 -32 20 c-62 38 -142 18 -175 -43 -25 -46 -24 -170 2 -214 34 -57 108 -72 169 -33 l34 21 7 -21 c3 -11 15 -20 26 -20 18 0 19 9 19 240 l0 240 -25 0 c-25 0 -25 0 -25 -95z m-27 -133 c24 -23 27 -33 27 -88 0 -58 -2 -64 -35 -93 -41 -36 -76 -40 -105 -11 -26 26 -33 59 -28 127 4 46 10 61 33 80 33 29 66 25 108 -15z" fill="#37C62C"/>
<path d="M213 610 l-163 -81 0 -84 c0 -47 3 -85 7 -85 5 0 81 37 170 82 l163 82 0 83 c0 46 -3 83 -7 83 -5 0 -81 -36 -170 -80z" fill="#37C62C"/>
<path d="M492 603 l3 -87 165 -82 165 -83 3 76 c2 42 1 82 -2 89 -4 10 -318 174 -333 174 -2 0 -2 -39 -1 -87z" fill="#37C62C"/>
<path d="M2822 671 c-21 -13 -11 -55 15 -59 30 -4 49 31 27 52 -18 18 -24 19 -42 7z" fill="#37C62C"/>
<path d="M3857 669 c-22 -13 -22 -48 -1 -56 20 -8 48 8 52 30 4 21 -29 38 -51 26z" fill="#37C62C"/>
<path d="M7262 671 c-8 -4 -12 -19 -10 -32 2 -18 9 -24 28 -24 19 0 26 6 28 24 3 20 -11 41 -28 41 -3 0 -11 -4 -18 -9z" fill="#37C62C"/>
<path d="M8834 666 c-26 -20 -9 -58 24 -54 21 2 28 9 30 29 4 31 -27 45 -54 25z" fill="#37C62C"/>
<path d="M5680 590 c0 -36 -3 -40 -24 -40 -25 0 -36 -15 -29 -37 3 -7 16 -13 29 -13 24 0 24 0 24 -114 0 -100 2 -116 21 -140 18 -23 27 -27 68 -24 39 3 46 6 49 25 3 20 0 22 -26 17 -48 -10 -62 21 -62 138 l0 98 45 0 c41 0 45 2 45 25 0 23 -4 25 -45 25 l-45 0 0 40 c0 36 -2 40 -25 40 -22 0 -25 -4 -25 -40z" fill="#37C62C"/>
<path d="M7700 590 c0 -36 -3 -40 -24 -40 -14 0 -27 -4 -30 -9 -11 -18 6 -41 30 -41 24 0 24 0 24 -114 0 -100 2 -116 21 -140 18 -23 27 -27 68 -24 39 3 46 6 49 25 3 20 0 22 -26 17 -48 -10 -62 21 -62 138 l0 98 45 0 c41 0 45 2 45 25 0 23 -4 25 -45 25 l-45 0 0 40 c0 36 -2 40 -25 40 -22 0 -25 -4 -25 -40z" fill="#37C62C"/>
<path d="M2820 386 l0 -166 25 0 25 0 -2 163 c-3 159 -3 162 -25 165 l-23 3 0 -165z" fill="#37C62C"/>
<path d="M2980 386 l0 -166 25 0 25 0 0 113 c0 113 0 113 30 142 34 33 82 38 108 11 14 -13 18 -40 20 -141 4 -125 4 -125 28 -125 l24 0 0 128 c0 141 -14 185 -65 198 -39 10 -95 -3 -121 -27 l-22 -21 -4 24 c-2 15 -11 24 -25 26 l-23 3 0 -165z" fill="#37C62C"/>
<path d="M3382 535 c-31 -14 -51 -40 -39 -52 4 -3 24 2 47 11 79 31 123 15 136 -52 l7 -32 -44 0 c-99 0 -159 -40 -159 -105 0 -50 41 -85 99 -85 27 0 56 7 70 16 22 16 24 16 33 0 5 -9 18 -16 29 -16 20 0 20 5 17 141 -3 140 -3 141 -31 165 -22 19 -39 24 -80 24 -29 -1 -67 -7 -85 -15z m148 -199 c0 -25 -7 -40 -26 -55 -59 -47 -141 -9 -113 52 13 30 25 34 92 36 l47 1 0 -34z" fill="#37C62C"/>
<path d="M3850 385 l0 -165 25 0 25 0 0 165 0 165 -25 0 -25 0 0 -165z" fill="#37C62C"/>
<path d="M4413 535 c-22 -9 -33 -21 -33 -35 0 -24 -2 -24 43 -5 76 31 124 14 134 -48 l6 -37 -44 0 c-122 0 -185 -62 -148 -144 22 -46 99 -62 158 -31 28 14 32 14 37 0 3 -8 15 -15 25 -15 18 0 19 9 19 136 l0 136 -29 29 c-25 25 -37 29 -83 29 -29 -1 -68 -7 -85 -15z m147 -199 c0 -42 -38 -76 -84 -76 -39 0 -56 15 -56 51 0 38 33 59 92 59 48 0 48 0 48 -34z" fill="#37C62C"/>
<path d="M4720 386 l0 -166 25 0 25 0 0 109 c0 106 1 110 29 140 22 24 38 31 66 31 32 0 36 3 33 23 -5 35 -62 36 -98 2 l-28 -27 -4 23 c-2 16 -11 25 -25 27 l-23 3 0 -165z" fill="#37C62C"/>
<path d="M4988 538 c-36 -13 -41 -54 -5 -43 12 4 45 9 74 12 48 5 54 3 83 -25 19 -20 30 -41 30 -59 0 -25 -4 -29 -27 -29 -16 -1 -65 -1 -110 -2 l-83 -2 0 -40 c0 -85 49 -130 139 -130 42 0 56 5 86 31 81 71 69 241 -21 284 -36 17 -125 19 -166 3z m182 -199 c0 -16 -21 -53 -39 -66 -9 -7 -33 -13 -53 -13 -28 0 -41 6 -57 26 -12 15 -21 35 -21 45 0 17 9 19 85 19 53 0 85 -4 85 -11z" fill="#37C62C"/>
<path d="M5372 536 c-44 -20 -72 -82 -72 -161 0 -70 23 -115 69 -140 36 -18 136 -20 171 -2 30 15 34 43 5 39 -85 -12 -107 -14 -129 -8 -28 7 -50 36 -60 79 l-6 27 99 0 c55 0 106 3 115 6 33 13 11 109 -33 148 -28 25 -114 32 -159 12z m126 -46 c13 -12 22 -33 22 -50 l0 -30 -80 0 c-79 0 -80 0 -80 25 0 63 91 98 138 55z" fill="#37C62C"/>
<path d="M5900 385 l0 -165 25 0 c20 0 25 5 26 28 2 112 12 208 21 220 6 7 24 20 40 28 29 15 63 7 80 -20 4 -6 8 -66 8 -133 l0 -123 30 0 30 0 0 111 c0 61 5 119 10 130 17 30 64 51 94 39 32 -12 35 -28 39 -165 l2 -110 28 -3 27 -3 0 121 c0 169 -20 210 -103 210 -20 0 -50 -10 -71 -25 l-38 -25 -30 25 c-38 32 -84 32 -132 0 l-36 -24 0 24 c0 20 -5 25 -25 25 l-25 0 0 -165z" fill="#37C62C"/>
<path d="M6488 538 c-36 -13 -41 -54 -5 -43 12 4 45 9 74 12 48 5 54 3 83 -25 27 -28 42 -80 23 -83 -27 -4 -78 -7 -140 -8 l-73 -1 0 -35 c0 -88 49 -135 139 -135 42 0 56 5 86 31 41 37 60 93 52 161 -8 64 -30 102 -71 122 -38 18 -125 20 -168 4z m182 -207 c0 -34 -45 -71 -88 -71 -43 0 -66 19 -77 63 l-7 27 86 0 c77 0 86 -2 86 -19z" fill="#37C62C"/>
<path d="M6989 521 c-53 -54 -34 -106 56 -151 68 -34 82 -56 58 -90 -13 -18 -22 -21 -57 -17 -22 3 -53 8 -68 12 -22 6 -28 4 -28 -8 0 -63 176 -61 210 2 28 53 4 97 -74 134 -30 15 -60 35 -65 46 -28 51 36 78 112 46 13 -5 17 -2 17 14 0 27 -29 41 -85 41 -38 0 -52 -5 -76 -29z" fill="#37C62C"/>
<path d="M7255 538 c-3 -8 -4 -81 -3 -163 l3 -150 28 -3 28 -3 -3 163 c-3 161 -3 163 -26 166 -12 2 -24 -3 -27 -10z" fill="#37C62C"/>
<path d="M7431 524 c-57 -47 -38 -115 41 -149 57 -25 78 -44 78 -70 0 -45 -51 -56 -137 -29 -17 5 -23 2 -23 -9 0 -26 41 -47 93 -47 60 0 101 20 117 59 20 49 3 81 -62 116 -71 38 -88 53 -88 76 0 36 66 49 123 24 13 -5 17 -2 17 14 0 48 -108 58 -159 15z" fill="#37C62C"/>
<path d="M7963 530 c-84 -51 -95 -208 -19 -277 33 -30 41 -33 100 -33 81 0 116 12 116 41 0 16 -4 19 -17 14 -10 -4 -44 -9 -75 -12 -53 -5 -59 -4 -87 25 -19 18 -31 41 -31 56 l0 26 104 0 c117 0 130 7 120 61 -10 53 -32 87 -64 104 -41 21 -108 19 -147 -5z m136 -46 c12 -15 21 -37 21 -50 0 -23 -2 -24 -85 -24 -77 0 -85 2 -85 19 0 11 12 33 26 50 35 42 92 44 123 5z" fill="#37C62C"/>
<path d="M8270 385 l0 -165 25 0 25 0 0 114 0 114 36 32 c21 18 43 29 51 26 8 -3 19 -6 24 -6 23 0 39 -71 39 -175 l0 -105 25 0 25 0 0 113 c0 111 0 114 28 140 40 38 68 41 98 12 23 -23 24 -31 24 -145 l0 -120 25 0 25 0 0 125 c0 133 -10 174 -49 195 -35 18 -87 12 -119 -15 -17 -14 -32 -25 -35 -25 -4 0 -17 11 -31 25 -32 32 -92 34 -130 4 -27 -21 -46 -18 -46 7 0 8 -9 14 -20 14 -19 0 -20 -7 -20 -165z" fill="#37C62C"/>
<path d="M8830 385 l0 -165 25 0 25 0 0 165 0 165 -25 0 -25 0 0 -165z" fill="#37C62C"/>
<path d="M208 347 l-158 -82 0 -86 0 -87 165 82 164 81 1 88 c0 48 -3 87 -7 86 -5 0 -79 -37 -165 -82z" fill="#37C62C"/>
<path d="M491 338 l0 -83 161 -80 c88 -44 164 -81 169 -83 5 -2 9 36 8 85 l0 88 -157 78 c-86 43 -163 77 -169 77 -10 0 -13 -23 -12 -82z" fill="#37C62C"/>
<path d="M225 94 c-82 -41 -154 -79 -160 -85 -5 -5 53 -9 158 -9 l167 0 0 85 c0 47 -3 85 -7 85 -5 -1 -75 -35 -158 -76z" fill="#37C62C"/>
<path d="M490 86 l0 -86 168 0 167 0 -53 30 c-30 16 -63 32 -75 36 -12 4 -24 10 -27 13 -4 5 -144 78 -172 89 -4 2 -8 -35 -8 -82z" fill="#37C62C"/>
</g>
</svg>